<svg width="33" height="33" viewBox="0 0 33 33" fill="none" xmlns="http://www.w3.org/2000/svg">
<g clip-path="url(#clip0_163_60)">
<path d="M27.2427 22.9001L27.376 23.0334C27.6787 23.3387 28.0537 23.5625 28.466 23.6839C28.8784 23.8054 29.3148 23.8206 29.7347 23.7281C30.1477 23.6414 30.5323 23.4522 30.8532 23.178C31.174 22.9038 31.4207 22.5533 31.5707 22.1588C32.3068 20.2258 32.6587 18.1678 32.6067 16.1001C32.4566 12.0388 30.7861 8.18206 27.9264 5.29439C25.0666 2.40673 21.2263 0.698903 17.1667 0.50942C15.02 0.434778 12.8802 0.79314 10.875 1.56314C8.86979 2.33315 7.04014 3.49902 5.49514 4.99127C3.95014 6.48351 2.72143 8.27157 1.88225 10.2488C1.04307 12.2261 0.610612 14.3521 0.610657 16.5001C0.615597 20.742 2.30289 24.8088 5.3024 27.8083C8.30192 30.8079 12.3687 32.4951 16.6107 32.5001C17.0613 32.5001 17.504 32.4708 17.944 32.4334C18.2779 32.4053 18.5889 32.2525 18.8152 32.0054C19.0415 31.7583 19.1665 31.4351 19.1653 31.1001L19.1227 26.3161C19.1119 25.3707 19.3831 24.4436 19.9016 23.6531C20.4202 22.8625 21.1626 22.2445 22.0341 21.8779C22.9056 21.5113 23.8665 21.4127 24.7942 21.5948C25.722 21.7769 26.5744 22.2313 27.2427 22.9001ZM23.32 11.2334C23.7023 11.132 24.1061 11.1462 24.4803 11.2742C24.8546 11.4022 25.1824 11.6384 25.4225 11.9527C25.6625 12.2671 25.804 12.6456 25.8289 13.0403C25.8539 13.4351 25.7613 13.8284 25.5627 14.1705C25.3642 14.5125 25.0686 14.7881 24.7135 14.9622C24.3584 15.1364 23.9596 15.2013 23.5675 15.1488C23.1755 15.0964 22.8078 14.9288 22.511 14.6674C22.2142 14.4059 22.0016 14.0624 21.9 13.6801C21.8325 13.4262 21.8158 13.1615 21.8506 12.9011C21.8855 12.6408 21.9713 12.3898 22.1032 12.1626C22.235 11.9354 22.4104 11.7364 22.6191 11.577C22.8279 11.4175 23.0661 11.3008 23.32 11.2334ZM11.0133 23.1001C10.631 23.2015 10.2272 23.1873 9.85298 23.0593C9.47874 22.9313 9.15087 22.6951 8.91082 22.3808C8.67077 22.0664 8.52933 21.6879 8.50437 21.2932C8.47941 20.8984 8.57206 20.5051 8.77061 20.1631C8.96915 19.821 9.26468 19.5454 9.61981 19.3713C9.97494 19.1971 10.3737 19.1322 10.7658 19.1847C11.1578 19.2372 11.5255 19.4047 11.8223 19.6661C12.1191 19.9276 12.3318 20.2711 12.4333 20.6534C12.5008 20.9073 12.5176 21.172 12.4827 21.4324C12.4478 21.6928 12.362 21.9437 12.2302 22.1709C12.0983 22.3981 11.923 22.5971 11.7142 22.7565C11.5054 22.916 11.2672 23.0327 11.0133 23.1001ZM11.0133 15.1001C10.631 15.2015 10.2272 15.1873 9.85298 15.0593C9.47874 14.9313 9.15087 14.6951 8.91082 14.3808C8.67077 14.0664 8.52933 13.6879 8.50437 13.2932C8.47941 12.8984 8.57206 12.5051 8.77061 12.1631C8.96915 11.821 9.26468 11.5454 9.61981 11.3713C9.97494 11.1971 10.3737 11.1322 10.7658 11.1847C11.1578 11.2372 11.5255 11.4047 11.8223 11.6661C12.1191 11.9276 12.3318 12.2711 12.4333 12.6534C12.5008 12.9073 12.5176 13.172 12.4827 13.4324C12.4478 13.6928 12.362 13.9437 12.2302 14.1709C12.0983 14.3981 11.923 14.5971 11.7142 14.7565C11.5054 14.916 11.2672 15.0327 11.0133 15.1001ZM17.68 11.1001C17.2977 11.2015 16.8939 11.1873 16.5196 11.0593C16.1454 10.9313 15.8175 10.6951 15.5775 10.3808C15.3374 10.0664 15.196 9.68792 15.171 9.29318C15.1461 8.89843 15.2387 8.50515 15.4373 8.16305C15.6358 7.82096 15.9313 7.54542 16.2865 7.37127C16.6416 7.19712 17.0404 7.13218 17.4324 7.18467C17.8245 7.23716 18.1922 7.40471 18.489 7.66614C18.7858 7.92757 18.9984 8.27115 19.1 8.65342C19.1674 8.90731 19.1842 9.172 19.1494 9.43238C19.1145 9.69275 19.0287 9.94371 18.8968 10.1709C18.765 10.3981 18.5896 10.5971 18.3808 10.7565C18.1721 10.916 17.9339 11.0327 17.68 11.1001Z" fill="#FF782D"/>
</g>
<defs>
<clipPath id="clip0_163_60">
<rect width="32" height="32" fill="white" transform="translate(0.5 0.5)"/>
</clipPath>
</defs>
</svg>
