<svg width="33" height="33" viewBox="0 0 33 33" fill="none" xmlns="http://www.w3.org/2000/svg">
<g clip-path="url(#clip0_163_125)">
<path d="M32.0533 7.34419C32.3892 7.66919 32.5608 8.03669 32.3675 8.49085C32.1808 8.92919 31.8133 9.06419 31.355 9.06252C29.535 9.05419 27.715 9.05919 25.8958 9.05919H25.4983V12.3917C25.5825 12.3984 25.6717 12.4109 25.7608 12.4109C26.385 12.4134 27.0092 12.4109 27.6325 12.4125C28.3358 12.4142 28.7008 12.7834 28.7017 13.495C28.7033 14.7742 28.7025 16.0525 28.7025 17.3317C28.7025 21.9684 28.6958 26.605 28.7108 31.2425C28.7125 31.8209 28.5558 32.25 28.0167 32.5H20.2167C20.2192 31.6475 20.2233 30.795 20.2233 29.9425V13.5992C20.2233 12.7425 20.5542 12.4125 21.41 12.4117C22.1067 12.4117 22.8033 12.41 23.5 12.4075C23.5192 12.4075 23.5383 12.3959 23.6 12.3759V12.0292C23.6 8.59752 23.5992 5.16669 23.6025 1.73585C23.6025 1.56085 23.6108 1.37919 23.6583 1.21252C23.7775 0.790021 24.2125 0.514188 24.6425 0.564188C25.0842 0.615021 25.43 0.965854 25.4642 1.40919C25.4775 1.59252 25.4658 1.77752 25.4658 1.99585H25.8383C27.6792 1.99585 29.52 2.00002 31.36 1.99335C31.8058 1.99169 32.1633 2.12669 32.3567 2.54502C32.5575 2.98002 32.41 3.34669 32.0992 3.67919C31.5092 4.30835 30.9275 4.94669 30.3225 5.60335C30.3925 5.68085 30.4567 5.75669 30.5267 5.82669C31.0342 6.33419 31.5383 6.84419 32.0533 7.34419Z" fill="#FF782D"/>
<path d="M18.3492 20.6849C18.3508 24.6233 18.3475 28.5616 18.345 32.4999H10.9825C10.9817 28.5716 10.9792 24.6441 10.9808 20.7158C10.9808 20.1283 11.3625 19.7299 11.9533 19.7266C13.7617 19.7174 15.5708 19.7174 17.3792 19.7266C17.9592 19.7299 18.3483 20.1199 18.3492 20.6849Z" fill="#FF782D"/>
<path d="M9.11082 32.4999H1.49832C0.959151 32.2733 0.778317 31.8666 0.786651 31.2891C0.810817 29.5541 0.79415 27.8191 0.795817 26.0833C0.795817 25.3124 1.14665 24.9633 1.92165 24.9633C3.93748 24.9624 5.95415 24.9624 7.96998 24.9633C8.75498 24.9633 9.10665 25.3191 9.10748 26.1091C9.10915 28.2391 9.10998 30.3699 9.11082 32.4999Z" fill="#FF782D"/>
<path d="M17.62 9.02256C17.1392 9.24923 16.615 9.04423 16.3483 8.5209C16.1417 8.11506 15.9417 7.70756 15.7175 7.2584C15.645 7.38256 15.5917 7.46423 15.5458 7.55006C12.4825 13.2392 8.01 17.4134 2.10667 20.0492C1.28917 20.4142 0.965 20.3176 0.5 19.5867V19.0876C0.661667 18.6967 0.976667 18.4984 1.3525 18.3317C6.825 15.8984 10.975 12.0317 13.8375 6.77756C13.895 6.67173 13.9433 6.56173 14.0267 6.39256C13.4742 6.50256 12.99 6.60673 12.5025 6.6934C12.0833 6.76756 11.6767 6.5434 11.5042 6.16507C11.2608 5.63007 11.5575 5.0009 12.1425 4.8709C13.2375 4.6284 14.335 4.39923 15.435 4.17923C15.9725 4.07173 16.3117 4.2484 16.5567 4.7384C17.0508 5.72173 17.5417 6.70673 18.0258 7.69506C18.2883 8.2309 18.1108 8.7909 17.62 9.02256Z" fill="#FF782D"/>
</g>
<defs>
<clipPath id="clip0_163_125">
<rect width="32" height="32" fill="white" transform="translate(0.5 0.5)"/>
</clipPath>
</defs>
</svg>
