<svg width="21" height="20" viewBox="0 0 21 20" fill="none" xmlns="http://www.w3.org/2000/svg">
<path d="M17.766 16.9614C15.9105 14.254 14.0534 11.5475 12.197 8.84056C12.1728 8.8053 12.1506 8.76859 12.1203 8.72175C12.4455 8.3427 12.769 7.96527 13.0929 7.58803C14.7762 5.62749 16.4597 3.66677 18.143 1.70605C18.1535 1.69375 18.1618 1.67983 18.1712 1.66663H16.7417C14.9945 3.70113 13.2472 5.73582 11.4722 7.80269C11.4509 7.76417 11.4357 7.73108 11.4154 7.7016C10.0524 5.71339 8.689 3.72555 7.32597 1.73734C7.31096 1.71527 7.30029 1.69032 7.28745 1.66663H2.44659C2.48855 1.73535 2.52725 1.80624 2.57264 1.87243C4.61854 4.85673 6.66498 7.84067 8.71142 10.8248C8.73276 10.8559 8.7532 10.8877 8.78304 10.9328C8.61684 11.1277 8.44974 11.3246 8.28137 11.5207C6.37889 13.7362 4.47622 15.9516 2.57391 18.1673C2.5287 18.2201 2.48891 18.2778 2.44659 18.3333H3.87617C4.5236 17.5757 5.16976 16.8171 5.81845 16.0606C6.9717 14.7157 8.12657 13.3718 9.28072 12.0278C9.32286 11.9786 9.36626 11.9307 9.41654 11.8733C9.44909 11.9128 9.47803 11.9431 9.50154 11.9773C10.9324 14.0634 12.3629 16.1496 13.7932 18.2362C13.8143 18.2671 13.8313 18.3009 13.8503 18.3333H18.691C18.3828 17.8759 18.0777 17.4164 17.766 16.9614ZM16.5476 17.2972C15.9306 17.2978 15.3135 17.2945 14.6965 17.3003C14.5816 17.3012 14.5109 17.2685 14.4438 17.1725C11.1297 12.4177 7.81281 7.66453 4.49647 2.9112C4.46591 2.86744 4.43806 2.82168 4.38923 2.74681C4.99452 2.74681 5.56816 2.7696 6.1389 2.73813C6.47654 2.71951 6.66263 2.83832 6.85378 3.11357C10.0922 7.77593 13.3434 12.4294 16.5917 17.0849C16.6339 17.1453 16.6746 17.2066 16.7299 17.2876C16.6505 17.292 16.5992 17.2971 16.5476 17.2972Z" fill="#555555"/>
</svg>
