<svg width="21" height="20" viewBox="0 0 21 20" fill="none" xmlns="http://www.w3.org/2000/svg">
<path d="M19.6484 5.72926C19.4479 4.62179 18.7711 3.91087 17.7129 3.71732C17.2762 3.63715 16.8316 3.57875 16.3881 3.5587C14.5073 3.47367 12.6256 3.40696 10.7442 3.33337C10.7437 3.35284 10.7431 3.37231 10.7425 3.39178C10.3099 3.39178 9.87699 3.38548 9.44466 3.39293C7.65089 3.42299 5.85684 3.44275 4.07252 3.6655C2.96276 3.80379 2.194 4.46375 1.96295 5.56091C1.83382 6.17362 1.76339 6.8018 1.71242 7.42683C1.60334 8.76363 1.57642 10.1047 1.67148 11.4435C1.73046 12.2716 1.80605 13.1022 1.94376 13.9202C2.12443 14.9916 2.86284 15.6999 3.90245 15.8542C4.51803 15.9456 5.13962 16.0234 5.76092 16.0438C7.66807 16.1056 9.57636 16.1629 11.4844 16.1723C13.3864 16.1821 15.2892 16.1368 17.1838 15.9378C17.6722 15.8863 18.1535 15.8084 18.5804 15.535C19.2865 15.0829 19.6077 14.4035 19.6847 13.6055C19.7887 12.5258 19.894 11.4435 19.9295 10.3604C19.9808 8.81059 19.9252 7.26134 19.6484 5.72926ZM8.96708 12.5184V7.04545C10.5556 7.95851 12.1274 8.86213 13.7271 9.78177C12.1297 10.7003 10.5581 11.6036 8.96708 12.5184Z" fill="#555555"/>
</svg>
