<svg width="33" height="33" viewBox="0 0 33 33" fill="none" xmlns="http://www.w3.org/2000/svg">
<path d="M2.16417 10.886V11.2143C2.16417 16.2777 2.16333 21.341 2.16583 26.4043C2.16583 26.6535 2.1675 26.906 2.20917 27.1502C2.57917 29.3526 4.3175 30.826 6.565 30.8302C10.5667 30.8368 14.5692 30.8318 18.5717 30.8318H18.9083C18.85 30.5977 18.7925 30.4193 18.7642 30.2368C18.5342 28.7693 18.3267 27.2985 18.0783 25.8343C17.9567 25.121 18.0333 24.4685 18.345 23.8085C19.7908 20.7493 21.2125 17.6777 22.6442 14.6118C23.5983 12.5685 25.68 11.8068 27.7242 12.7577C28.7367 13.2277 29.7425 13.7118 30.7408 14.1852V10.886H2.16417ZM13.7367 26.8368C12.6458 26.8427 11.5558 26.8385 10.465 26.8385C9.36417 26.8377 8.26333 26.8385 7.1625 26.8377C6.76166 26.8377 6.45917 26.6568 6.2725 26.3102C6.09166 25.9743 6.11 25.6268 6.315 25.3035C6.515 24.9885 6.82 24.8443 7.18583 24.8443C9.37667 24.841 11.5683 24.8377 13.76 24.8452C14.3733 24.8477 14.8 25.2835 14.795 25.856C14.79 26.4302 14.3625 26.8335 13.7367 26.8368ZM16.6758 21.4935C16.5558 21.5202 16.4283 21.5185 16.305 21.5185C14.7983 21.5202 13.2925 21.5193 11.7867 21.5193C10.26 21.5193 8.73333 21.5227 7.20667 21.5177C6.48917 21.5152 6.005 20.9002 6.19 20.2435C6.3125 19.8085 6.7025 19.5252 7.2025 19.5235C8.43833 19.5202 9.675 19.5227 10.9108 19.5227C12.7492 19.5227 14.5875 19.5202 16.4258 19.5243C16.9758 19.5252 17.4017 19.8993 17.4592 20.4102C17.515 20.911 17.1783 21.3835 16.6758 21.4935ZM17.4383 15.4068C17.3417 15.8143 17.0825 16.081 16.6633 16.166C16.5325 16.1927 16.3958 16.1985 16.2617 16.1985C14.7758 16.201 13.2908 16.2002 11.8058 16.2002C10.29 16.2002 8.77333 16.2027 7.2575 16.1985C6.5825 16.196 6.14083 15.7685 6.16 15.1552C6.17583 14.651 6.55583 14.251 7.05917 14.2102C7.14166 14.2035 7.225 14.2035 7.30833 14.2035C10.3092 14.2035 13.3108 14.1977 16.3125 14.2135C16.5742 14.2143 16.8717 14.301 17.09 14.4435C17.4167 14.6568 17.53 15.0185 17.4383 15.4068Z" fill="#FF782D"/>
<path d="M30.7608 6.56587C30.7425 6.14337 30.6991 5.71087 30.5816 5.30754C30.0325 3.41421 28.3725 2.22421 26.3141 2.22337C19.7541 2.22171 13.1941 2.22254 6.63332 2.22337C6.50915 2.22337 6.38415 2.22421 6.25915 2.22921C4.29415 2.30504 2.53332 3.79754 2.25582 5.74671C2.11998 6.69587 2.18748 7.67504 2.16582 8.64004C2.16415 8.70837 2.18248 8.77754 2.19248 8.85587H30.7541C30.7591 8.75837 30.7675 8.66004 30.7683 8.56171C30.7691 7.89587 30.7891 7.23004 30.7608 6.56587ZM7.80832 6.86921C7.26415 6.86671 6.81582 6.42004 6.81415 5.87921C6.81332 5.32921 7.28998 4.86171 7.83582 4.87754C8.38082 4.89254 8.81165 5.34171 8.80582 5.89087C8.79998 6.44254 8.36332 6.87171 7.80832 6.86921ZM11.1525 6.86921C10.5983 6.87337 10.1591 6.44504 10.1525 5.89421C10.145 5.33171 10.5941 4.87254 11.1483 4.87671C11.6825 4.88087 12.1416 5.34171 12.1433 5.87587C12.145 6.41671 11.6983 6.86504 11.1525 6.86921ZM14.48 6.86837C13.9316 6.87254 13.4808 6.43754 13.4725 5.89504C13.4641 5.33921 13.9216 4.87421 14.4741 4.87754C15.0125 4.88087 15.4658 5.33587 15.4675 5.87421C15.4691 6.41837 15.0258 6.86421 14.48 6.86837Z" fill="#FF782D"/>
<path d="M29.0075 21.4308C28.8208 21.8308 28.6433 22.2142 28.465 22.5967C27.6892 24.2617 26.91 25.9258 26.14 27.5933C26 27.8983 25.8 28.1258 25.5117 28.2992C24.2392 29.0642 22.9733 29.8408 21.7033 30.61C20.9075 31.0925 20.1783 30.7517 20.0358 29.8308C19.8042 28.3325 19.5708 26.8342 19.3567 25.3333C19.3258 25.1183 19.3458 24.8625 19.435 24.6675C20.3908 22.5825 21.3658 20.5067 22.3358 18.4283C22.3442 18.4108 22.3617 18.3967 22.4017 18.3508C24.6017 19.3767 26.7908 20.3975 29.0075 21.4308Z" fill="#FF782D"/>
<path d="M30.6608 17.8093C30.4492 18.4226 30.14 19.0026 29.8625 19.626C27.6367 18.5885 25.4433 17.5651 23.215 16.526C23.4892 15.9485 23.7217 15.4043 24 14.8835C24.55 13.856 25.7792 13.3935 26.8558 13.841C27.7842 14.2268 28.6975 14.6526 29.59 15.1135C30.5475 15.6085 31.0142 16.7851 30.6608 17.8093Z" fill="#FF782D"/>
<path d="M30.7667 26.4633C30.7542 28.6867 29.2817 30.4433 27.0842 30.7742C26.3308 30.8875 25.55 30.8192 24.7808 30.8308C24.5325 30.835 24.2842 30.8317 24.035 30.8317C24.0283 30.8092 24.0208 30.7867 24.0142 30.7642C24.7208 30.3342 25.4192 29.89 26.1358 29.4775C26.7092 29.1483 27.1042 28.69 27.38 28.0908C28.4333 25.7992 29.5058 23.5158 30.5717 21.23C30.6133 21.1392 30.6617 21.0508 30.7433 20.8892C30.7558 21.0408 30.7675 21.1167 30.7675 21.1917C30.7692 22.9492 30.7767 24.7058 30.7667 26.4633Z" fill="#FF782D"/>
</svg>
