<svg width="21" height="20" viewBox="0 0 21 20" fill="none" xmlns="http://www.w3.org/2000/svg">
<path d="M12.6412 5.78734C12.6309 6.3906 12.639 6.99332 12.639 7.6178C12.725 7.62161 12.7962 7.62813 12.8681 7.62813C13.5736 7.62868 14.2797 7.62759 14.9857 7.62868C15.4133 7.62977 15.5188 7.73475 15.5194 8.1547C15.5204 8.96249 15.521 9.77029 15.5194 10.5781C15.5183 10.9523 15.4253 11.047 15.0488 11.0486C14.3292 11.0519 13.61 11.0497 12.8904 11.0497H12.6401V17.6763C12.6401 18.2753 12.5814 18.3329 11.9727 18.3329C11.1986 18.3329 10.4251 18.3335 9.65156 18.3324C9.22182 18.3318 9.12227 18.2334 9.12173 17.8069C9.12119 15.6555 9.12173 13.5035 9.12173 11.3516V11.0872C9.03905 11.0823 8.96779 11.0747 8.89653 11.0747C8.30632 11.0736 7.71557 11.0753 7.12536 11.0736C6.71575 11.072 6.61675 10.9768 6.61566 10.571C6.6124 9.77681 6.61294 8.98262 6.61512 8.18842C6.61621 7.7663 6.71303 7.67165 7.13026 7.67111C7.71394 7.67056 8.29762 7.67111 8.8813 7.67111H9.12173C9.12173 7.57047 9.12064 7.49105 9.12173 7.41163C9.13587 6.63811 9.10813 5.86132 9.17341 5.09269C9.33877 3.15779 10.8265 1.75707 12.7707 1.68418C13.5839 1.65371 14.3988 1.67112 15.2136 1.6733C15.4829 1.67438 15.5982 1.79079 15.5999 2.06169C15.6042 2.86949 15.6042 3.67728 15.5999 4.48508C15.5982 4.75978 15.4851 4.86857 15.1903 4.87565C14.6408 4.8887 14.0909 4.88925 13.5415 4.89741C12.904 4.9072 12.6526 5.14818 12.6412 5.78734Z" fill="#555555"/>
</svg>
