<svg width="33" height="33" viewBox="0 0 33 33" fill="none" xmlns="http://www.w3.org/2000/svg">
<g clip-path="url(#clip0_163_80)">
<path d="M24.5967 23.585C24.2033 19.0375 20.0417 15.675 15.4925 16.2283C11.1133 16.7617 7.90834 20.6792 8.3625 25.0767C8.72167 28.5458 10.6433 30.8767 13.9142 32.0692C14.5108 32.2875 15.1608 32.36 15.7867 32.5H17.1592C17.3108 32.4742 17.4625 32.445 17.615 32.4225C21.9442 31.785 24.9742 27.9492 24.5967 23.585ZM17.6483 29.49C17.5725 29.5217 17.4967 29.5525 17.4075 29.5883V30.9817H15.545V29.6017C14.0292 28.8783 13.2658 27.8325 13.3417 26.5658H15.1475C15.1708 26.645 15.195 26.7108 15.2092 26.7792C15.3592 27.4858 15.9292 27.905 16.6392 27.8283C17.2708 27.7608 17.7742 27.1833 17.7617 26.5408C17.7475 25.8542 17.22 25.295 16.5108 25.275C15.5683 25.2483 14.7667 24.9242 14.1333 24.2233C12.6725 22.6075 13.2325 20.0758 15.2467 19.215C15.4767 19.1167 15.5583 19.0067 15.5425 18.7617C15.52 18.4117 15.5367 18.0583 15.5367 17.6817H17.4083C17.4083 18.07 17.4225 18.4417 17.4033 18.8117C17.3925 19.0225 17.465 19.1125 17.6592 19.1967C18.8392 19.7075 19.4917 20.6142 19.62 21.895C19.6258 21.955 19.62 22.0158 19.62 22.0967H17.79C17.77 22.0192 17.7467 21.9417 17.73 21.8625C17.5858 21.1883 16.9908 20.7592 16.3075 20.8375C15.665 20.9108 15.1533 21.5133 15.185 22.16C15.2192 22.8408 15.7425 23.36 16.4317 23.3958C18.0192 23.4775 19.1842 24.3817 19.535 25.8042C19.9117 27.3342 19.1208 28.8808 17.6483 29.49Z" fill="#FF782D"/>
<path d="M8.8725 17.495C8.87083 17.6633 8.79833 17.8608 8.69417 17.9933C7.97917 18.8975 7.40833 19.8791 7.02333 20.9675C6.97333 21.1075 6.93833 21.225 6.7375 21.2241C4.65833 21.2133 2.57917 21.2125 0.5 21.2083V19.3366H4.10833V12.98H8.88083V13.3158C8.88083 14.7091 8.88667 16.1016 8.8725 17.495Z" fill="#FF782D"/>
<path d="M32.4267 19.3474V21.2024C32.325 21.2083 32.225 21.2191 32.1258 21.2191C30.1925 21.2199 28.2592 21.2149 26.3267 21.2258C26.0908 21.2266 25.9817 21.1599 25.9033 20.9341C25.5308 19.8533 24.9575 18.8841 24.2475 17.9899C24.1483 17.8641 24.0725 17.6783 24.0725 17.5208C24.0633 11.9716 24.065 6.42242 24.065 0.873258V0.569092H28.8283V19.3474H32.4267Z" fill="#FF782D"/>
<path d="M22.1667 4.7041V15.9824C21.4158 15.6258 20.6767 15.2066 19.89 14.9199C19.1058 14.6341 18.2725 14.4816 17.4267 14.2624V4.7041H22.1667Z" fill="#FF782D"/>
<path d="M15.5125 8.84912V14.2633C14.6808 14.48 13.8408 14.6358 13.0483 14.9233C12.2675 15.2075 11.5342 15.625 10.7742 15.9866V8.84912H15.5125Z" fill="#FF782D"/>
</g>
<defs>
<clipPath id="clip0_163_80">
<rect width="32" height="32" fill="white" transform="translate(0.5 0.5)"/>
</clipPath>
</defs>
</svg>
