<svg width="21" height="20" viewBox="0 0 21 20" fill="none" xmlns="http://www.w3.org/2000/svg">
<path d="M19.1099 6.30975C19.0985 4.51344 18.2976 3.1504 16.7479 2.24307C16.0659 1.84362 15.3123 1.6708 14.5219 1.67039C12.027 1.66835 9.53204 1.66224 7.03708 1.67202C5.00639 1.67976 3.30994 2.91929 2.66755 4.85501C2.57299 5.14033 2.53834 5.44604 2.47639 5.74237C2.46538 5.79495 2.45641 5.84794 2.44663 5.90052V14.1024C2.49147 14.3518 2.51593 14.607 2.584 14.8499C3.10084 16.6947 4.29961 17.8279 6.16848 18.2501C6.336 18.288 6.50842 18.306 6.67839 18.3333H14.8819C15.1317 18.2885 15.3869 18.264 15.6302 18.1959C17.473 17.6799 18.6094 16.4832 19.0252 14.6163C19.092 14.3176 19.1091 14.0029 19.1099 13.6956C19.1165 11.2336 19.1254 8.77169 19.1099 6.30975ZM10.7875 14.5687C8.27824 14.5829 6.21087 12.5188 6.21209 10.0006C6.21331 7.48488 8.24686 5.44848 10.7728 5.43422C13.282 5.41995 15.3494 7.48366 15.3482 10.0018C15.3469 12.5176 13.3134 14.554 10.7875 14.5687ZM15.6237 6.54657C14.8696 6.54413 14.2354 5.90908 14.2358 5.15664C14.2358 4.40175 14.868 3.77241 15.6257 3.77322C16.3875 3.77363 17.0116 4.39849 17.0096 5.15908C17.0079 5.91723 16.377 6.54902 15.6237 6.54657Z" fill="#555555"/>
<path d="M2.44663 14.1027C2.49147 14.3521 2.51593 14.6073 2.584 14.8502C3.10084 16.695 4.29961 17.8282 6.16848 18.2505C6.336 18.2884 6.50842 18.3063 6.67839 18.3336C5.26767 18.3336 3.85695 18.3336 2.44663 18.3336C2.44663 16.9233 2.44663 15.513 2.44663 14.1027Z" fill="white"/>
<path d="M14.3638 10.0093C14.3573 11.991 12.7399 13.5974 10.7646 13.5844C8.78611 13.5713 7.18992 11.9654 7.19645 9.99377C7.20297 8.0124 8.82075 6.40521 10.796 6.41866C12.7745 6.43171 14.3703 8.03767 14.3638 10.0093Z" fill="#555555"/>
<path d="M16.0248 5.15555C16.0256 5.37484 15.8401 5.56152 15.6233 5.5603C15.4085 5.55908 15.2189 5.36587 15.2222 5.15147C15.2259 4.94074 15.4069 4.76058 15.6188 4.75772C15.841 4.75487 16.024 4.93422 16.0248 5.15555Z" fill="#555555"/>
</svg>
