<svg width="21" height="20" viewBox="0 0 21 20" fill="none" xmlns="http://www.w3.org/2000/svg">
<path d="M17.2168 7.27955C17.2215 8.55319 16.992 9.78296 16.4298 10.9338C15.8189 12.1831 14.9138 13.1429 13.5882 13.6282C12.5785 13.9987 11.5465 14.0898 10.5367 13.6066C10.2708 13.4797 10.0299 13.3015 9.76527 13.1388C9.67955 13.4682 9.58574 13.8097 9.50272 14.154C9.27728 15.0928 9.00595 16.0162 8.58748 16.8909C8.38094 17.3222 8.15888 17.7447 7.80251 18.0761C7.73568 18.1382 7.65941 18.1922 7.58045 18.2395C7.27739 18.4197 6.97636 18.336 6.81235 18.0255C6.64563 17.7096 6.61323 17.364 6.60379 17.0158C6.57274 15.8238 6.7894 14.6656 7.0722 13.5141C7.39146 12.2155 7.69249 10.9115 7.99554 9.60882C8.01579 9.52107 8.00567 9.41646 7.97799 9.32939C7.64862 8.28928 7.62297 7.26943 8.1906 6.29749C8.50311 5.76293 8.95263 5.40115 9.58371 5.30193C10.474 5.16154 11.2596 5.80342 11.3251 6.70246C11.373 7.35245 11.1894 7.95788 11.0187 8.56804C10.86 9.13095 10.6879 9.68981 10.53 10.2527C10.4423 10.5652 10.4504 10.8771 10.6171 11.1666C10.9012 11.658 11.3561 11.8179 11.8887 11.77C12.5137 11.7147 12.9706 11.357 13.3385 10.8757C13.8089 10.2602 14.0695 9.55145 14.226 8.80157C14.384 8.0436 14.467 7.27888 14.355 6.5074C14.1748 5.26211 13.4795 4.41774 12.2903 4.03167C11.0902 3.64222 9.89081 3.69757 8.74879 4.2652C7.56492 4.85309 6.86499 5.83312 6.57679 7.10946C6.431 7.75809 6.404 8.41415 6.67128 9.04321C6.7651 9.26392 6.90279 9.4718 7.04926 9.66417C7.22407 9.89297 7.29494 10.1272 7.21732 10.4073C7.15185 10.6422 7.09988 10.8804 7.03238 11.1146C6.90009 11.5777 6.56936 11.7295 6.13199 11.5345C5.264 11.1477 4.72404 10.4626 4.42503 9.58722C3.93771 8.16239 4.02276 6.75241 4.67342 5.39778C5.62983 3.40801 7.25039 2.26869 9.38797 1.82997C9.72073 1.76179 10.0636 1.73885 10.4018 1.69362C10.4382 1.6889 10.474 1.67608 10.5097 1.66663H11.4216C11.6038 1.68822 11.7861 1.7078 11.9683 1.7321C13.5214 1.93458 14.8544 2.57579 15.8871 3.76776C16.7551 4.77007 17.2127 5.94584 17.2168 7.27955Z" fill="#FF782D"/>
</svg>
