<svg width="556" height="321" viewBox="0 0 556 321" fill="none" xmlns="http://www.w3.org/2000/svg">
<path d="M310.717 9.47825C314.951 11.2977 318.998 13.5317 322.801 16.1482C332.132 22.5938 340.396 31.7982 351.543 33.6374C363.164 35.5533 374.371 28.8587 386.043 27.3205C398.692 25.6564 412.01 30.5118 420.692 39.9543C440.412 61.3956 430.843 96.1441 416.785 117.761C401.941 140.587 378.491 156.987 352.883 165.707C335.226 171.728 316.231 174.41 300.098 183.823C284.257 193.065 272.368 208.127 256.592 217.487C244.641 224.542 230.965 228.047 217.133 227.6C214.329 200.146 222.401 170.852 211.265 145.656C208.615 139.659 204.968 134.182 201.745 128.481C189.481 106.703 183.455 81.9027 184.342 56.8577C185.094 36.6754 204.162 15.0069 221.719 6.46212C236.125 -0.54723 252.827 -0.618391 268.765 0.591345C283.047 1.67244 297.67 3.83191 310.717 9.47825Z" fill="#EDF5FD"/>
<path d="M43.7521 301.194C41.6055 302.24 39.3398 303.11 37.1255 303.931C33.1057 305.428 28.734 306.942 24.6249 305.727C20.9489 304.632 18.1526 301.473 16.5583 297.951C11.4314 286.623 14.6364 271.331 15.8626 259.417C17.3081 245.375 19.5788 231.432 22.6624 217.662C24.5924 209.049 28.4633 198.917 37.0876 197.499C43.1024 196.511 49.0279 200.655 52.1002 205.984C55.1726 211.313 56.0036 217.608 56.7724 223.722C59.5172 245.494 62.9983 266.479 55.446 287.753C54.5554 290.266 53.5322 292.764 51.927 294.894C49.8372 297.705 46.9246 299.651 43.7521 301.194Z" fill="#FCB9A4"/>
<path d="M43.1538 299.971C38.6441 300.204 27.4347 302.957 23.7695 299.878C19.0757 295.934 21.9315 285.076 25.4126 281.149C29.473 276.57 37.6967 270.059 43.6979 269.692C57.2325 268.871 71.4331 280.142 61.0493 293.659C57.0431 298.876 49.6748 299.637 43.1538 299.971Z" fill="#F59776"/>
<path d="M223.719 38.9033C224.771 40.4646 225.336 42.3079 225.344 44.1966C225.34 44.4426 225.42 44.6823 225.571 44.8753L237.522 36.8369L237.92 37.439L238.061 37.6552L245.288 48.6387C245.394 48.8032 245.453 48.994 245.459 49.1902C245.466 49.3863 245.419 49.5805 245.324 49.7517C245.229 49.9228 245.089 50.0644 244.92 50.161C244.751 50.2577 244.559 50.3057 244.365 50.3C242.715 50.2669 241.087 50.6914 239.659 51.5274C238.23 52.3634 237.055 53.5789 236.261 55.0421C235.468 56.5054 235.085 58.1604 235.156 59.8278C235.227 61.4951 235.747 63.1111 236.662 64.5004C237.576 65.8897 238.85 66.9992 240.344 67.7087C241.838 68.4182 243.495 68.7005 245.137 68.5249C246.778 68.3494 248.341 67.7228 249.655 66.713C250.969 65.7033 251.985 64.3489 252.591 62.797C252.662 62.6145 252.78 62.455 252.934 62.3356C253.088 62.2163 253.27 62.1416 253.463 62.1196C253.655 62.0976 253.85 62.1292 254.026 62.211C254.202 62.2927 254.353 62.4215 254.462 62.5835L261.662 73.5313L261.811 73.7585L262.231 74.3934L250.28 82.4346C250.399 82.6386 250.58 82.7981 250.797 82.889C252.514 83.6229 253.972 84.8628 254.982 86.447C257.656 90.6045 256.687 96.103 252.816 98.7469C248.859 101.454 243.374 100.208 240.597 95.988C239.577 94.4499 239.031 92.64 239.03 90.7878C239.032 90.551 238.957 90.32 238.816 90.131L226.775 98.257L219.009 86.4497C218.897 86.2876 218.743 86.1592 218.565 86.0783C218.386 85.9974 218.189 85.967 217.995 85.9903C217.8 86.0136 217.616 86.0897 217.461 86.2106C217.306 86.3316 217.186 86.4927 217.114 86.6769C216.506 88.2281 215.489 89.5813 214.174 90.5898C212.859 91.5982 211.297 92.2234 209.655 92.3974C208.014 92.5715 206.357 92.2878 204.863 91.5772C203.37 90.8666 202.098 89.7561 201.184 88.3663C200.271 86.9764 199.751 85.3602 199.682 83.693C199.613 82.0258 199.996 80.3712 200.79 78.9086C201.585 77.446 202.761 76.2314 204.19 75.3963C205.618 74.5613 207.246 74.1378 208.896 74.1717C209.091 74.1751 209.283 74.1253 209.452 74.0274C209.621 73.9296 209.761 73.7874 209.857 73.6159C209.953 73.4444 210.002 73.2499 209.997 73.0529C209.993 72.8559 209.936 72.6638 209.833 72.4967L202.069 60.6977L214.118 52.5854C214.002 52.3697 213.815 52.2014 213.59 52.1091C211.9 51.3853 210.46 50.1733 209.448 48.625C206.671 44.4046 207.656 38.8102 211.655 36.1636C215.566 33.5772 220.958 34.8033 223.719 38.9033Z" fill="#FE554E"/>
<path d="M251.509 71.8645C252.05 71.3417 252.832 71.0927 253.55 70.9805C253.947 70.9299 254.346 70.9024 254.746 70.8983C254.922 70.9085 255.096 70.871 255.253 70.7896C255.409 70.7083 255.54 70.5861 255.634 70.4358C255.794 70.1621 255.742 69.7297 255.777 69.4231C255.794 69.218 255.854 69.0188 255.953 68.8389C256.052 68.6591 256.188 68.5027 256.351 68.3803C256.469 68.3113 256.608 68.2918 256.739 68.3261C256.871 68.3605 256.983 68.4459 257.052 68.5637C257.114 68.684 257.129 68.823 257.095 68.9539C257.061 69.0848 256.98 69.1983 256.868 69.2726C256.733 69.3766 256.766 69.82 256.755 69.9568C256.752 70.3588 256.638 70.752 256.427 71.0927C255.91 71.8426 255.133 71.9138 254.297 71.9466C253.602 71.9429 252.921 72.1384 252.332 72.5104C252.219 72.5819 252.126 72.6812 252.061 72.799C251.997 72.9167 251.963 73.0491 251.963 73.1837C251.963 73.5806 252.48 73.7311 252.775 73.8652C253.137 74.0339 253.454 74.2861 253.701 74.6014C253.848 74.8617 254.03 75.0995 254.243 75.3076C254.403 75.3908 254.577 75.4414 254.756 75.4565C254.936 75.4715 255.116 75.4507 255.288 75.3952C255.588 75.2812 255.846 75.0743 256.024 74.804C256.99 73.6545 258.206 72.8224 259.757 72.9675C260.398 73.0395 261.026 73.2025 261.622 73.4519L261.67 73.5258L261.819 73.753L262.239 74.388L261.838 74.6617C260.831 74.2046 259.724 73.7858 258.639 74.0869C257.961 74.3195 257.366 74.7488 256.928 75.3213C256.712 75.6012 256.466 75.8563 256.194 76.0821C255.852 76.322 255.449 76.4587 255.033 76.4763C254.648 76.5199 254.259 76.4507 253.912 76.2769C253.565 76.1032 253.275 75.8323 253.076 75.4964C252.898 75.2131 252.651 74.9805 252.359 74.8204C251.974 74.6151 251.563 74.4673 251.276 74.1225C250.705 73.4382 250.913 72.4475 251.509 71.8645Z" fill="white"/>
<path d="M243.177 90.4786C243.661 90.0839 244.223 89.7992 244.825 89.6438C244.411 89.4403 244.037 89.162 243.721 88.8227C242.941 87.9195 243.469 86.7317 244.316 86.0857C245.164 85.4398 246.395 85.3796 247.37 85.5986C248.501 85.8531 249.251 86.7207 249.116 87.9113C249.1 87.9773 249.071 88.0394 249.031 88.094C248.991 88.1487 248.941 88.1949 248.883 88.23C248.826 88.2651 248.762 88.2884 248.695 88.2985C248.629 88.3086 248.561 88.3054 248.496 88.289C248.366 88.2535 248.254 88.1684 248.184 88.0516C248.115 87.9348 248.092 87.7953 248.122 87.6622C248.201 86.9807 247.581 86.6906 246.98 86.5674C246.239 86.4158 245.469 86.5621 244.833 86.9753C244.578 87.1816 244.404 87.4724 244.341 87.7963C244.336 87.8699 244.353 87.9433 244.389 88.0071C244.469 88.1349 244.572 88.2463 244.693 88.3355C245.234 88.7981 246.024 89.0444 246.625 89.4796C247.018 89.767 246.942 90.4402 246.384 90.4512C245.522 90.4547 244.678 90.7031 243.948 91.1683C243.829 91.2311 243.73 91.326 243.66 91.4423C243.591 91.5587 243.555 91.6921 243.556 91.8279C243.592 92.0225 243.677 92.2047 243.801 92.3577C243.925 92.5107 244.086 92.6297 244.268 92.7037C245.017 93.0513 246.138 92.6736 246.896 92.3972C247.739 92.0696 248.554 91.6724 249.332 91.2093C249.906 90.8836 250.415 91.7759 249.849 92.1016C248.903 92.6609 247.906 93.1283 246.872 93.4974C245.83 93.8478 244.492 94.1105 243.507 93.4618C242.478 92.7831 242.183 91.3325 243.177 90.4786Z" fill="white"/>
<path d="M222.78 75.9836C222.239 76.1889 221.776 76.6897 221.408 77.1277C221.019 77.5792 220.712 78.0973 220.504 78.6576C220.287 79.2817 219.291 79.0353 219.51 78.4086C219.8 77.6195 220.235 76.8932 220.793 76.2683C221.335 75.6305 222.092 75.0093 222.94 74.8669C223.414 74.8094 223.893 74.9161 224.299 75.1697C224.705 75.4232 225.014 75.8086 225.176 76.2628C225.628 75.9851 226.141 75.8235 226.67 75.792C227.853 75.74 228.627 76.8868 228.565 78.009C228.502 79.1311 227.715 79.9796 226.922 80.6392C226.156 81.2596 225.321 81.7869 224.434 82.2102C223.847 82.5003 223.321 81.6108 223.917 81.3179C224.624 80.9766 225.3 80.5727 225.936 80.111C226.545 79.6648 227.228 79.06 227.471 78.3265C227.663 77.7407 227.449 76.8512 226.754 76.8239C226.367 76.835 225.992 76.9565 225.671 77.1742C225.432 77.3194 225.213 77.4951 225.019 77.697C224.953 77.795 224.879 77.8866 224.797 77.9706C224.407 78.3757 223.646 77.8502 223.985 77.3603L224.069 77.2481C224.098 77.2098 224.128 77.1687 224.161 77.1304C224.238 76.9891 224.266 76.8259 224.242 76.6663C224.217 76.5068 224.141 76.36 224.025 76.2491C223.877 76.0708 223.673 75.9478 223.448 75.8997C223.222 75.8516 222.987 75.8812 222.78 75.9836Z" fill="white"/>
<path d="M213.062 42.7186C213.181 42.785 213.269 42.8963 213.307 43.028C213.345 43.1598 213.33 43.3014 213.265 43.422C212.765 44.1398 212.549 45.0218 212.663 45.8926C212.776 46.7634 213.21 47.5591 213.877 48.1214C214.221 48.4061 214.603 48.6402 215.011 48.8166C215.139 48.876 215.272 48.9219 215.409 48.9534C215.454 48.969 215.502 48.9764 215.55 48.9753C215.566 48.9753 215.691 48.9753 215.685 48.9753C215.862 48.9305 216.023 48.8355 216.148 48.7016C216.419 48.4471 216.689 48.1542 216.96 47.9024C217.023 47.8384 217.102 47.7921 217.188 47.7681C217.274 47.7441 217.365 47.7433 217.452 47.7657C217.538 47.7881 217.618 47.8329 217.682 47.8957C217.746 47.9586 217.793 48.0373 217.818 48.1241C218.142 49.189 218.797 50.12 219.686 50.779C220.091 51.0863 220.592 51.2342 221.096 51.195C221.588 51.1049 222.029 50.8314 222.331 50.4286C222.449 50.279 222.534 50.1057 222.581 49.9203C222.627 49.7348 222.634 49.5415 222.601 49.353C222.499 48.887 222.289 48.4519 221.99 48.0831C221.334 47.2444 220.502 46.5638 219.553 46.0905C219.252 45.9221 218.927 45.7995 218.59 45.7265C217.945 45.5842 218.195 44.5797 218.836 44.7221C219.846 44.9465 220.772 45.5432 221.567 46.2028C222.415 46.8897 223.191 47.7902 223.527 48.8604C223.874 50.0208 223.343 51.0636 222.415 51.7424C221.364 52.5087 220.027 52.3089 219.031 51.5645C218.216 50.9457 217.565 50.1323 217.136 49.197C216.811 49.5855 216.375 49.8628 215.888 49.9907C214.946 50.1549 213.931 49.4981 213.233 48.9315C212.377 48.2195 211.814 47.2105 211.655 46.1015C211.496 44.9926 211.752 43.8634 212.372 42.9348C212.438 42.8163 212.546 42.7278 212.674 42.6876C212.803 42.6474 212.942 42.6585 213.062 42.7186Z" fill="white"/>
<path d="M207.08 81.63C207.264 80.8253 207.892 80.1849 208.588 79.7579C208.255 79.5272 207.995 79.204 207.841 78.8273C207.386 77.7325 208.358 76.7472 209.164 76.1971C209.54 75.9273 209.972 75.7493 210.427 75.6771C210.882 75.6049 211.348 75.6405 211.787 75.7811C212.705 76.0767 213.514 76.6514 214.383 77.062C214.981 77.3357 214.483 78.2471 213.89 77.9679C213.198 77.6422 212.537 77.2289 211.852 76.9087C211.599 76.7711 211.32 76.6903 211.033 76.6719C210.746 76.6535 210.458 76.6978 210.19 76.802C209.595 77.062 208.718 77.6231 208.772 78.3785C208.815 78.9998 209.752 79.1996 210.277 79.1996C210.945 79.1859 210.94 80.1712 210.277 80.2314C209.845 80.2796 209.43 80.4282 209.065 80.6656C208.699 80.9031 208.393 81.2228 208.171 81.5999C208.094 81.7267 208.047 81.87 208.035 82.0183C208.023 82.1667 208.045 82.3158 208.1 82.4538C208.301 82.8753 208.815 83.1654 209.278 83.305C210.301 83.6143 211.249 82.9136 211.931 82.2102C212.669 81.4133 213.29 80.5137 213.777 79.5389C214.088 78.9505 214.984 79.4513 214.673 80.0371C213.623 82.0214 211.663 85.0074 209.032 84.304C207.862 83.9783 206.779 82.9492 207.08 81.63Z" fill="white"/>
<path d="M240.946 71.6291C241.489 70.8708 241.929 70.0423 242.254 69.1659C242.346 68.9168 242.422 68.665 242.489 68.4105C242.825 68.4766 243.165 68.5223 243.507 68.5473C243.34 69.187 243.118 69.8107 242.844 70.4112C242.487 71.1388 242.068 71.833 241.59 72.4858C241.202 73.0808 240.764 73.642 240.283 74.1635C239.844 74.6179 239.279 75.0531 238.624 75.0394C237.541 75.012 236.935 74.1936 237 73.1399C237.062 72.0451 237.541 70.9503 238.025 69.9842C238.128 69.7707 238.239 69.5572 238.35 69.3492C237.776 69.4362 237.19 69.4092 236.626 69.2699C235.543 68.9962 234.972 67.9506 235.408 66.8942C235.725 66.1306 236.436 65.5804 237.151 65.159C237.368 65.4331 237.6 65.6945 237.847 65.9417C237.343 66.2082 236.893 66.5674 236.52 67.0009C236.346 67.2043 236.259 67.4689 236.277 67.7372C236.296 68.0464 236.61 68.1888 236.872 68.2681C237.655 68.4652 238.481 68.368 239.198 67.9944C239.62 67.7536 240.183 68.2408 239.904 68.6896C239.453 69.4171 239.049 70.1731 238.694 70.9531C238.472 71.4337 238.291 71.9328 238.153 72.4447C238.098 72.6469 238.057 72.8527 238.031 73.0605C238.025 73.1645 238.025 73.2686 238.031 73.3726C238.024 73.4543 238.035 73.5366 238.063 73.6134C238.067 73.6682 238.083 73.7215 238.11 73.769C238.137 73.8165 238.175 73.857 238.22 73.8871L238.247 73.9035C238.247 73.9035 238.345 73.9501 238.323 73.9446C238.403 73.972 238.486 73.9903 238.57 73.9993C239.07 74.0404 239.522 73.5094 239.855 73.1262C240.245 72.6474 240.61 72.1477 240.946 71.6291Z" fill="white"/>
<path d="M230.958 45.2941C231.145 44.8388 231.43 44.4319 231.794 44.1036C232.158 43.7753 232.59 43.5339 233.058 43.3974C233.97 43.0854 234.953 43.0799 235.892 42.8719C236.534 42.7296 236.81 43.7258 236.163 43.8681C234.78 44.1774 232.842 44.0023 232.021 45.4173C231.909 45.5808 231.859 45.7802 231.881 45.9783C231.986 46.112 232.131 46.208 232.295 46.252C232.879 46.4282 233.476 46.5527 234.081 46.6243C234.147 46.6403 234.209 46.6692 234.263 46.7095C234.317 46.7498 234.363 46.8005 234.398 46.8588C234.432 46.9171 234.455 46.9818 234.465 47.0491C234.475 47.1164 234.472 47.1851 234.455 47.251C234.228 47.9052 233.686 48.6195 233.643 49.2381C233.629 49.4132 233.643 49.405 233.7 49.5117C233.675 49.4707 233.773 49.5638 233.797 49.5802C233.889 49.6294 233.988 49.6654 234.09 49.6869C234.514 49.7988 234.964 49.7419 235.348 49.5282C236.225 49.0519 236.742 48.0174 237.14 47.1388C237.514 46.2613 237.829 45.3598 238.085 44.4402C238.277 43.8052 239.271 44.0515 239.076 44.6892C238.769 45.7858 238.383 46.8579 237.92 47.8969C237.403 48.9917 236.642 50.1604 235.484 50.6175C234.563 50.976 232.85 50.8282 232.652 49.6021C232.605 49.0964 232.706 48.5878 232.945 48.1405C233.023 47.9572 233.134 47.7382 233.237 47.5329C232.727 47.4652 232.226 47.3337 231.748 47.1415C231.574 47.0752 231.416 46.9742 231.281 46.8446C231.147 46.715 231.04 46.5594 230.966 46.3871C230.892 46.2147 230.854 46.0292 230.852 45.8414C230.851 45.6537 230.887 45.4675 230.958 45.2941Z" fill="white"/>
<path d="M217.047 63.161C217.174 63.8124 216.189 64.0943 216.061 63.4347C215.818 62.203 216.44 60.7743 217.431 60.0381C217.703 59.8283 218.023 59.6905 218.36 59.6369C218.698 59.5834 219.044 59.6159 219.367 59.7316C219.943 59.9669 220.198 60.539 220.485 61.0508C220.728 61.4914 220.923 61.4942 221.383 61.4011C221.932 61.2448 222.517 61.2697 223.051 61.4723C223.353 61.6223 223.619 61.8376 223.83 62.1029C224.041 62.3682 224.192 62.677 224.272 63.0077C224.357 63.3668 224.364 63.7406 224.291 64.1025C224.676 64.1663 225.034 64.3479 225.315 64.6228C225.596 64.8977 225.787 65.2528 225.863 65.6407C226.158 66.8285 225.606 67.885 224.664 68.5719C223.722 69.2589 222.499 69.3191 221.416 69.2042C220.284 69.0455 219.168 68.791 218.078 68.4433C217.442 68.2654 217.688 67.2609 218.324 67.4416C219.968 67.9041 221.865 68.5966 223.56 67.989C224.285 67.7317 224.913 67.1022 224.913 66.3003C224.928 65.9521 224.818 65.6101 224.605 65.3368C224.366 65.0631 224.047 65.0631 223.709 65.1918C223.251 65.3505 222.964 64.8168 223.124 64.4446C223.47 63.6399 223.324 62.4767 222.312 62.3043C221.954 62.2441 221.546 62.4165 221.194 62.4576C220.969 62.4917 220.738 62.4719 220.522 62.3996C220.306 62.3273 220.109 62.2047 219.949 62.0415C219.616 61.7104 219.464 61.2478 219.204 60.8647C218.944 60.4815 218.468 60.591 218.146 60.7798C217.434 61.1986 216.887 62.3481 217.047 63.161Z" fill="white"/>
<path d="M231.25 82.1856C231.385 82.8507 232.187 83.1955 232.671 83.5541C233.213 83.9625 233.597 84.5504 233.754 85.2154C233.795 85.4003 233.846 85.583 233.906 85.7628C233.968 85.9106 233.992 85.927 234.209 85.9379C234.903 85.9356 235.572 85.6699 236.082 85.1935C237.165 84.2465 237.809 82.878 238.542 81.6601C238.886 81.0908 239.782 81.5889 239.438 82.1582C238.583 83.5759 237.828 85.1689 236.48 86.187C235.811 86.7118 234.984 86.9873 234.138 86.967C233.429 86.9342 233.031 86.4744 232.853 85.8148C232.796 85.541 232.717 85.2727 232.614 85.0128C232.43 84.6722 232.158 84.3885 231.827 84.1918C231.128 83.7073 230.419 83.2284 230.24 82.3306C229.929 80.7706 231.347 79.2242 232.76 78.8574C232.766 78.3909 232.919 77.9382 233.196 77.5656C233.363 77.3853 233.568 77.2455 233.796 77.1564C234.024 77.0673 234.268 77.0313 234.512 77.051C235.635 77.0729 236.764 77.7134 237.674 78.3265C238.215 78.6959 237.728 79.6046 237.181 79.2324C236.467 78.7122 235.661 78.3342 234.807 78.1185C234.672 78.0796 234.531 78.0683 234.391 78.0852C234.252 78.1021 234.117 78.1469 233.995 78.217C233.923 78.3059 233.87 78.4082 233.838 78.518C233.779 78.7746 233.766 79.0397 233.8 79.3008C233.801 79.4373 233.748 79.5687 233.654 79.6665C233.56 79.7643 233.431 79.8207 233.296 79.8236C232.271 79.8893 231.033 81.0935 231.25 82.1856Z" fill="white"/>
<path d="M345.404 130.936C345.453 130.586 345.569 130.099 345.986 130.049C346.451 129.992 346.627 130.539 346.598 130.909C346.568 131.278 346.384 131.834 346.01 132.004C345.982 132.019 345.952 132.029 345.921 132.034C345.879 132.059 345.834 132.081 345.788 132.099C345.73 132.116 345.668 132.113 345.613 132.09C345.557 132.067 345.51 132.026 345.48 131.974C345.351 131.644 345.324 131.282 345.404 130.936Z" fill="black"/>
<path d="M346.089 124.302C346.2 123.771 346.901 123.349 347.171 124.015C347.215 124.137 347.238 124.265 347.242 124.395C347.246 124.425 347.246 124.455 347.242 124.485V124.504C347.235 124.731 347.195 124.955 347.123 125.17C347.001 125.638 346.776 126.089 346.357 125.755C345.986 125.465 346.002 124.707 346.089 124.302Z" fill="black"/>
<path d="M347.569 118.51C347.604 118.501 347.64 118.498 347.676 118.502C347.711 118.506 347.746 118.517 347.777 118.535C347.808 118.553 347.835 118.577 347.857 118.606C347.879 118.634 347.896 118.667 347.905 118.702L347.962 118.907C348.003 118.928 348.037 118.962 348.058 119.004C348.079 119.046 348.086 119.094 348.078 119.14C348.062 119.274 348.048 119.414 348.03 119.548V119.572C348.262 119.616 348.501 119.624 348.739 119.655C349.085 119.696 349.088 120.246 348.739 120.202C348.468 120.169 348.197 120.161 347.927 120.109C347.901 120.173 347.869 120.234 347.832 120.292C347.77 120.418 347.687 120.531 347.586 120.626C347.544 120.669 347.491 120.696 347.433 120.705C347.375 120.714 347.315 120.704 347.263 120.675C347.211 120.665 347.162 120.64 347.122 120.604C347.082 120.568 347.053 120.522 347.036 120.47V120.432C346.622 119.824 346.901 118.729 347.569 118.51Z" fill="black"/>
<path d="M346.673 124.532C346.955 124.612 347.245 124.662 347.537 124.68C347.609 124.68 347.678 124.708 347.728 124.76C347.779 124.811 347.808 124.881 347.808 124.953C347.808 125.026 347.779 125.095 347.728 125.147C347.678 125.198 347.609 125.227 347.537 125.227C347.196 125.208 346.858 125.151 346.53 125.057C346.2 124.951 346.34 124.417 346.673 124.532Z" fill="black"/>
<path d="M336.969 164.218C337.068 164.535 337.272 164.809 337.547 164.992C337.822 165.176 338.152 165.258 338.48 165.225C338.924 165.164 339.352 165.013 339.738 164.782C339.59 164.925 339.431 165.057 339.262 165.176C338.975 165.375 339.262 165.854 339.533 165.652C339.6 165.605 339.662 165.556 339.725 165.507C339.725 166.361 339.995 167.182 340.878 167.149C341.614 167.124 342.283 166.654 342.25 165.854C342.186 165.285 342.031 164.731 341.79 164.212C342.713 164.3 343.777 164.27 344.497 163.665C345.076 163.167 345.534 161.848 344.914 161.202C344.4 160.654 343.495 160.944 342.908 161.188C342.659 161.292 342.41 161.404 342.169 161.53C342.215 161.407 342.264 161.289 342.31 161.169C342.442 160.84 341.915 160.698 341.785 161.024C341.687 161.27 341.587 161.527 341.481 161.79C341.484 160.963 341.299 160.147 340.94 159.403C340.729 158.982 340.418 158.539 339.944 158.399C339.608 158.298 339.159 158.227 338.861 158.456C338.201 158.949 338.352 159.967 338.496 160.673C338.614 161.268 338.785 161.85 339.005 162.414C338.068 162.576 336.682 163.211 336.969 164.218ZM341.392 163.607C341.356 163.603 341.32 163.608 341.286 163.622C341.252 163.636 341.223 163.658 341.2 163.687C341.438 163.243 341.652 162.786 341.841 162.318C342.15 162.128 342.469 161.957 342.797 161.806C343.198 161.623 344.018 161.21 344.454 161.497C344.673 161.642 344.654 161.984 344.624 162.214C344.612 162.443 344.547 162.665 344.432 162.862C344.318 163.059 344.158 163.226 343.966 163.347C343.203 163.796 342.231 163.725 341.392 163.613V163.607ZM340.309 164.976C340.629 164.619 340.908 164.227 341.14 163.807C341.126 163.856 341.126 163.909 341.14 163.958C341.353 164.474 341.534 165.003 341.682 165.542C341.725 165.775 341.774 166.128 341.59 166.322C341.489 166.422 341.368 166.499 341.236 166.546C341.103 166.593 340.961 166.61 340.821 166.596C340.22 166.536 340.198 165.687 340.299 164.981L340.309 164.976ZM337.5 164.015C337.519 163.293 338.831 162.92 339.394 162.92C339.442 162.921 339.49 162.908 339.531 162.884C339.573 162.86 339.608 162.825 339.632 162.783C339.656 162.741 339.668 162.694 339.668 162.645C339.667 162.596 339.654 162.549 339.63 162.507C339.4 161.978 339.219 161.428 339.089 160.865C338.967 160.353 338.712 159.453 339.072 158.979C339.232 158.766 339.595 158.848 339.803 158.922C340.177 159.056 340.412 159.494 340.55 159.847C340.856 160.643 341.075 161.664 340.859 162.513C340.843 162.58 340.852 162.65 340.885 162.711C340.918 162.771 340.973 162.817 341.038 162.838C340.865 163.217 340.665 163.583 340.439 163.933C340.387 163.877 340.316 163.843 340.24 163.838C340.164 163.834 340.089 163.859 340.031 163.908C339.633 164.285 339.142 164.547 338.609 164.667C338.217 164.73 337.475 164.557 337.489 164.021L337.5 164.015Z" fill="#FCB9A4"/>
<path d="M338.122 126.623C338.429 126.746 338.768 126.759 339.083 126.66C339.398 126.56 339.67 126.354 339.852 126.075C340.086 125.689 340.241 125.259 340.309 124.811C340.326 125.018 340.326 125.225 340.309 125.432C340.28 125.783 340.818 125.876 340.851 125.52C340.851 125.438 340.851 125.358 340.851 125.276C341.506 125.824 342.299 126.133 342.84 125.421C343.29 124.83 343.355 124.009 342.721 123.527C342.244 123.211 341.718 122.978 341.165 122.838C341.82 122.173 342.472 121.321 342.456 120.374C342.442 119.605 341.725 118.412 340.832 118.483C340.09 118.546 339.736 119.43 339.546 120.046C339.468 120.306 339.397 120.569 339.338 120.84C339.278 120.725 339.216 120.612 339.154 120.5C338.986 120.188 338.542 120.5 338.71 120.818L339.102 121.54C338.473 121.013 337.732 120.638 336.937 120.446C336.479 120.344 335.943 120.309 335.537 120.588C335.245 120.788 334.906 121.094 334.887 121.48C334.844 122.301 335.718 122.835 336.349 123.172C336.88 123.455 337.434 123.691 338.006 123.878C337.554 124.712 337.167 126.207 338.122 126.623ZM340.461 122.791C340.435 122.816 340.415 122.848 340.404 122.883C340.393 122.918 340.392 122.955 340.399 122.991C340.213 122.524 340.002 122.067 339.768 121.622C339.818 121.262 339.89 120.904 339.982 120.552C340.096 120.12 340.301 119.219 340.794 119.061C341.043 118.979 341.292 119.211 341.449 119.381C341.617 119.534 341.745 119.726 341.823 119.941C341.902 120.155 341.927 120.386 341.898 120.612C341.749 121.48 341.073 122.194 340.461 122.78V122.791ZM340.816 124.513C340.743 124.037 340.62 123.571 340.447 123.122C340.476 123.164 340.515 123.197 340.561 123.218C341.091 123.378 341.611 123.572 342.118 123.798C342.326 123.911 342.624 124.097 342.659 124.362C342.673 124.504 342.655 124.647 342.609 124.781C342.562 124.915 342.487 125.038 342.388 125.139C341.952 125.55 341.289 125.027 340.816 124.502V124.513ZM338.298 126.1C337.757 125.627 338.298 124.359 338.65 123.911C338.681 123.873 338.701 123.828 338.709 123.78C338.717 123.732 338.712 123.683 338.695 123.638C338.678 123.592 338.649 123.552 338.612 123.522C338.575 123.491 338.53 123.472 338.482 123.464C337.935 123.307 337.403 123.099 336.893 122.843C336.425 122.613 335.575 122.244 335.44 121.663C335.38 121.39 335.672 121.168 335.859 121.053C336.2 120.848 336.671 120.941 337.039 121.053C337.851 121.327 338.764 121.798 339.273 122.504C339.314 122.56 339.375 122.598 339.442 122.61C339.51 122.622 339.58 122.608 339.638 122.569C339.817 122.945 339.969 123.333 340.093 123.73C340.018 123.736 339.948 123.771 339.898 123.828C339.848 123.884 339.82 123.958 339.822 124.034C339.857 124.583 339.745 125.132 339.5 125.624C339.3 125.969 338.699 126.448 338.298 126.089V126.1Z" fill="#FCB9A4"/>
<path d="M297.724 127.282C299.957 127.51 302.064 128.436 303.752 129.932C303.925 130.088 304.136 130.194 304.364 130.237C304.592 130.28 304.827 130.26 305.044 130.177C305.261 130.095 305.451 129.954 305.594 129.77C305.737 129.585 305.828 129.365 305.856 129.133L307.75 112.328L358.237 118.119L356.343 134.924C356.317 135.156 356.228 135.376 356.087 135.56C355.945 135.744 355.756 135.885 355.541 135.968C355.325 136.051 355.091 136.072 354.864 136.029C354.638 135.987 354.427 135.882 354.255 135.726C352.775 134.415 350.969 133.539 349.031 133.193C347.094 132.846 345.1 133.043 343.265 133.761C341.43 134.479 339.825 135.692 338.623 137.267C337.421 138.842 336.669 140.72 336.447 142.696C336.226 144.673 336.544 146.673 337.367 148.48C338.19 150.287 339.487 151.832 341.116 152.947C342.746 154.061 344.646 154.704 346.611 154.804C348.576 154.905 350.531 154.459 352.263 153.516C352.465 153.405 352.693 153.351 352.923 153.362C353.153 153.372 353.376 153.447 353.567 153.576C353.758 153.706 353.91 153.886 354.008 154.096C354.105 154.307 354.143 154.541 354.117 154.772L352.223 171.517L301.738 165.726L303.617 148.981C303.641 148.748 303.601 148.514 303.503 148.302C303.404 148.09 303.25 147.91 303.058 147.781C302.865 147.651 302.641 147.577 302.41 147.567C302.179 147.556 301.95 147.61 301.746 147.722C300.263 148.532 298.612 148.978 296.926 149.026C295.241 149.073 293.568 148.72 292.042 147.995C290.516 147.269 289.179 146.192 288.14 144.85C287.1 143.508 286.387 141.937 286.057 140.266C285.726 138.594 285.789 136.867 286.238 135.224C286.688 133.581 287.513 132.067 288.647 130.805C289.78 129.543 291.191 128.567 292.765 127.956C294.339 127.345 296.033 127.117 297.711 127.288L297.724 127.282Z" fill="#6283F4"/>
<path d="M345.536 125C345.807 125.605 345.685 126.303 345.65 126.946C345.623 127.474 345.482 128.243 345.767 128.728C345.97 129.078 346.43 129.078 346.757 128.941C347.797 128.509 348.622 127.408 349.323 126.565C349.957 125.804 350.512 124.94 351.202 124.231C351.236 124.196 351.262 124.154 351.277 124.108C351.292 124.062 351.296 124.012 351.288 123.964C351.281 123.916 351.262 123.87 351.233 123.831C351.204 123.792 351.167 123.76 351.124 123.738C351.133 123.694 351.133 123.648 351.122 123.604C351.111 123.56 351.091 123.519 351.062 123.485C351.033 123.45 350.997 123.423 350.956 123.404C350.915 123.386 350.87 123.378 350.826 123.38C350.276 123.349 349.736 123.222 349.229 123.005C348.612 122.786 348 122.534 347.377 122.329C346.581 122.055 345.101 121.685 344.841 122.892C344.684 123.62 345.258 124.373 345.536 125ZM345.536 123.53C345.423 123.191 345.369 122.808 345.807 122.709C346.053 122.664 346.305 122.68 346.543 122.756C347.306 122.971 348.056 123.228 348.79 123.527C349.359 123.767 349.956 123.931 350.566 124.015C349.984 124.658 349.483 125.405 348.942 126.07C348.523 126.587 348.078 127.082 347.607 127.551C347.296 127.854 346.912 128.268 346.481 128.391C346.433 128.403 346.384 128.411 346.335 128.416C346.303 128.416 346.297 128.399 346.294 128.394C346.234 128.161 346.219 127.918 346.251 127.679C346.314 126.962 346.337 126.242 346.319 125.523C346.246 124.775 345.758 124.212 345.534 123.53H345.536Z" fill="#CBE1F8"/>
<path d="M334.208 136.123C334.441 137.218 335.832 136.544 336.42 136.243C336.824 136.054 337.249 135.914 337.686 135.827C338.082 135.731 338.531 135.63 338.769 135.28C338.791 135.253 338.808 135.223 338.817 135.19C338.827 135.157 338.83 135.122 338.827 135.088C338.823 135.053 338.812 135.02 338.795 134.99C338.778 134.96 338.756 134.934 338.729 134.913C338.537 133.149 337.972 131.447 337.072 129.924C337.037 129.865 336.983 129.82 336.92 129.794C336.857 129.769 336.788 129.765 336.722 129.782C336.656 129.8 336.598 129.839 336.557 129.893C336.515 129.947 336.491 130.014 336.49 130.082C336.463 131.311 335.886 132.562 335.245 133.586C334.955 134.024 334.693 134.481 334.462 134.954C334.305 135.299 334.121 135.723 334.208 136.123ZM334.977 135.346C335.31 134.615 335.805 133.977 336.162 133.263C336.53 132.57 336.812 131.835 337.004 131.073C337.591 132.299 337.97 133.615 338.125 134.968C338.128 134.995 338.134 135.022 338.144 135.047C338.033 135.094 337.918 135.13 337.8 135.157C337.581 135.217 337.359 135.266 337.137 135.318C336.779 135.405 336.432 135.535 336.106 135.707C335.775 135.874 335.339 136.139 334.955 136.104C334.644 136.068 334.909 135.493 334.977 135.346Z" fill="#CBE1F8"/>
<path d="M328.832 119.638C329.214 120.147 329.644 120.582 329.942 121.16C330.313 121.899 330.551 122.698 330.919 123.44C330.947 123.487 330.986 123.527 331.034 123.554C331.081 123.582 331.135 123.596 331.19 123.596C331.244 123.596 331.298 123.582 331.346 123.554C331.393 123.527 331.433 123.487 331.46 123.44C332.427 121.88 333.431 120.333 334.219 118.672C334.292 118.636 334.348 118.574 334.376 118.497C334.541 118.075 334.414 117.591 333.891 117.588C333.491 117.588 333.133 117.761 332.752 117.845C332.37 117.93 331.975 117.769 331.623 117.706L331.019 117.585C330.467 117.449 329.899 117.386 329.33 117.399C328.84 117.44 328.391 117.605 328.277 118.144C328.163 118.683 328.526 119.23 328.832 119.638ZM329.409 118.026C330.342 118.012 331.23 118.322 332.148 118.448C332.553 118.498 332.964 118.455 333.35 118.322C333.478 118.276 333.611 118.243 333.745 118.223C333.737 118.233 333.731 118.244 333.726 118.256C332.98 119.765 332.146 121.227 331.228 122.635C330.8 121.65 330.483 120.637 329.763 119.802C329.463 119.452 329.081 119.063 328.935 118.614C328.789 118.166 329 118.034 329.409 118.026Z" fill="#CBE1F8"/>
<path d="M320.462 129.368C320.518 129.714 320.663 130.04 320.882 130.312C321.145 130.715 321.427 131.104 321.729 131.478C322.035 131.861 322.3 132.286 322.622 132.652C322.698 132.765 322.799 132.858 322.916 132.924C323.034 132.99 323.165 133.029 323.299 133.036C323.635 133.016 323.876 132.691 324.049 132.436C324.349 132.001 324.625 131.549 324.893 131.092C325.435 130.173 325.976 129.239 326.547 128.355C326.578 128.31 326.595 128.256 326.595 128.201C326.595 128.145 326.578 128.092 326.547 128.046C326.637 127.121 324.774 127.438 324.225 127.562C323.904 127.629 323.598 127.753 323.321 127.928C322.954 128.199 322.524 128.366 322.073 128.413C321.553 128.446 320.419 128.593 320.462 129.368ZM322.514 128.982C323.137 128.873 323.551 128.38 324.138 128.221C324.505 128.119 324.882 128.053 325.262 128.024C325.441 127.999 325.623 127.999 325.803 128.024C325.844 128.028 325.885 128.037 325.925 128.049C325.91 128.094 325.903 128.141 325.906 128.188C325.494 128.829 325.11 129.488 324.726 130.145C324.341 130.802 323.946 131.634 323.424 132.236C323.35 132.321 323.283 132.422 323.242 132.392C323.138 132.305 323.047 132.204 322.971 132.091C322.766 131.818 322.563 131.525 322.346 131.251C321.893 130.73 321.494 130.163 321.155 129.56C320.871 128.999 322.214 129.037 322.514 128.982Z" fill="#CBE1F8"/>
<path d="M314.19 121.592C315.162 122.413 316.153 123.215 317.1 124.069C317.134 124.103 317.175 124.128 317.22 124.143C317.265 124.158 317.313 124.163 317.36 124.157C317.407 124.15 317.452 124.134 317.492 124.108C317.532 124.082 317.565 124.047 317.59 124.006C318.197 123.081 318.305 121.88 318.329 120.799C318.353 119.717 318.256 118.579 318.253 117.468C318.253 117.431 318.247 117.395 318.234 117.361C318.229 117.3 318.207 117.241 318.169 117.192C318.132 117.144 318.081 117.107 318.023 117.087C317.003 116.707 316.25 117.938 315.495 118.385C314.74 118.831 313.744 118.713 313.21 119.463C312.623 120.29 313.622 121.111 314.19 121.592ZM313.795 119.742C314.358 119.247 315.2 119.329 315.812 118.921C316.177 118.68 316.488 118.374 316.829 118.1C317.05 117.875 317.333 117.722 317.642 117.662C317.642 118.672 317.742 119.679 317.717 120.686C317.698 121.576 317.647 122.548 317.252 123.36C316.483 122.679 315.701 122.022 314.91 121.373C314.585 121.113 313.262 120.21 313.795 119.742Z" fill="#CBE1F8"/>
<path d="M309.385 137.037C310.198 137.464 311.213 137.174 312.068 137.111C312.815 137.053 313.516 137.412 314.258 137.354C314.364 137.359 314.47 137.34 314.569 137.299C314.667 137.257 314.755 137.194 314.827 137.115C314.899 137.035 314.952 136.941 314.984 136.838C315.016 136.735 315.025 136.626 315.01 136.52C314.897 135.384 314.068 134.275 313.451 133.364C312.872 132.51 312.26 131.681 311.616 130.876C311.582 130.836 311.538 130.806 311.489 130.789C311.439 130.772 311.386 130.77 311.335 130.782C311.284 130.793 311.237 130.819 311.2 130.856C311.163 130.893 311.136 130.94 311.123 130.991C310.29 131.306 310.041 132.343 309.873 133.14C309.805 133.569 309.699 133.991 309.556 134.401C309.385 134.823 309.177 135.239 309.047 135.677C308.917 136.115 308.874 136.766 309.385 137.037ZM309.84 135.326C310.115 134.675 310.327 133.999 310.474 133.306C310.598 132.745 310.744 131.779 311.37 131.571C311.537 131.785 311.705 132.001 311.868 132.22C312.688 133.258 313.412 134.369 314.033 135.54C314.179 135.835 314.48 136.391 314.377 136.695C314.377 136.695 314.377 136.722 314.258 136.725C314.089 136.727 313.92 136.712 313.754 136.681C313.416 136.621 313.08 136.533 312.739 136.481C311.8 136.342 310.798 136.837 309.867 136.558C309.307 136.391 309.686 135.701 309.84 135.326Z" fill="#CBE1F8"/>
<path d="M325.86 141.474C325.92 141.793 326.006 142.107 326.114 142.412C326.233 142.727 326.404 143.025 326.509 143.346C326.745 144.06 326.455 144.81 326.688 145.535C326.699 145.575 326.717 145.613 326.742 145.646C326.767 145.679 326.799 145.707 326.835 145.727C326.87 145.748 326.91 145.761 326.951 145.766C326.991 145.771 327.033 145.768 327.073 145.757C327.941 145.442 328.602 144.662 329.157 143.94C329.668 143.28 330.129 142.571 330.6 141.898C330.664 141.899 330.726 141.877 330.776 141.836C330.825 141.795 330.859 141.737 330.87 141.673C330.984 141.263 330.995 140.765 330.648 140.455C330.327 140.201 329.943 140.039 329.539 139.987C329.119 139.916 328.712 139.785 328.329 139.599C327.894 139.329 327.414 139.143 326.913 139.051C325.595 138.917 325.67 140.6 325.86 141.474ZM326.905 139.667C327.649 139.826 328.258 140.357 329 140.51C329.341 140.548 329.676 140.632 329.996 140.759C330.095 140.795 330.179 140.862 330.236 140.951C330.293 141.04 330.319 141.146 330.31 141.252C330.274 141.275 330.242 141.306 330.218 141.342C329.723 142.059 329.257 142.798 328.716 143.483C328.307 144.005 327.822 144.646 327.219 144.991C327.178 144.512 327.303 144.019 327.219 143.54C327.113 143.009 326.81 142.555 326.661 142.037C326.528 141.624 325.93 139.456 326.905 139.667Z" fill="#CBE1F8"/>
<path d="M330.169 153.582C330.67 153.503 331.163 153.371 331.661 153.284C332.265 153.174 332.869 153.072 333.472 152.977C334.07 152.881 334.809 152.608 334.947 151.923C335.131 150.998 334.584 150.092 334.075 149.257C334.081 149.189 334.065 149.121 334.029 149.063C333.823 148.697 333.583 148.351 333.315 148.029C332.865 147.52 332.021 146.953 331.358 147.481C330.694 148.009 330.74 148.811 330.451 149.507C330.161 150.202 328.153 153.902 330.169 153.582ZM329.936 152.43C330.028 152.054 330.154 151.687 330.313 151.335C330.608 150.648 331.017 149.966 331.209 149.238C331.336 148.754 331.501 147.572 332.291 147.993C332.579 148.156 332.828 148.381 333.02 148.653C333.019 148.663 333.019 148.673 333.02 148.683C333.263 149.197 333.561 149.673 333.832 150.174C334.064 150.61 334.373 151.151 334.341 151.669C334.289 152.304 333.455 152.35 332.987 152.424C332.075 152.569 331.16 152.725 330.261 152.93C330.196 152.93 329.888 153.04 329.874 152.952C329.862 152.776 329.883 152.598 329.936 152.43Z" fill="#CBE1F8"/>
<path d="M325.145 161.782C325.511 162.461 325.768 163.186 326.147 163.859C326.526 164.532 326.932 165.14 327.351 165.775C327.394 165.846 327.462 165.898 327.541 165.919C327.621 165.94 327.705 165.928 327.776 165.887C328.645 165.392 329.254 164.478 329.75 163.627C330.245 162.775 330.64 161.921 331.041 161.046C331.1 161.057 331.161 161.052 331.217 161.029C331.273 161.007 331.322 160.969 331.357 160.92C331.393 160.871 331.413 160.813 331.417 160.752C331.421 160.691 331.408 160.631 331.379 160.578C331.209 160.277 330.789 160.159 330.483 160.066C329.999 159.921 329.503 159.814 329.011 159.71C327.893 159.472 326.729 159.182 325.586 159.461C325.17 159.562 324.712 159.735 324.607 160.2C324.485 160.731 324.904 161.336 325.145 161.782ZM325.984 160.014C326.986 159.877 327.952 160.115 328.924 160.323C329.335 160.411 329.75 160.498 330.153 160.616C330.232 160.638 330.37 160.671 330.505 160.714C330.134 161.522 329.763 162.332 329.322 163.104C328.881 163.876 328.412 164.667 327.698 165.176C327.395 164.719 327.091 164.262 326.818 163.785C326.491 163.216 326.244 162.625 325.963 162.031C325.73 161.533 325.327 161.024 325.218 160.476C325.153 160.112 325.716 160.052 325.984 160.014Z" fill="#CBE1F8"/>
<path d="M316.854 149.236C317.146 149.816 317.666 150.183 318.11 150.626C319.028 151.524 319.564 152.783 320.817 153.289C320.883 153.307 320.953 153.302 321.017 153.276C321.08 153.25 321.133 153.203 321.169 153.144C322.149 151.83 322.203 150.01 322.384 148.395C322.434 148.368 322.475 148.327 322.503 148.278C322.631 148.031 322.689 147.752 322.67 147.474C322.651 147.196 322.556 146.928 322.395 146.701C322.043 146.222 321.632 146.154 321.082 146.326C320.381 146.553 319.683 146.677 318.965 146.838C318.348 146.975 317.612 147.175 317.116 147.618C316.898 147.818 316.753 148.086 316.705 148.38C316.657 148.674 316.71 148.976 316.854 149.236ZM317.368 148.264C317.639 147.84 318.275 147.648 318.722 147.53C319.301 147.377 319.899 147.309 320.478 147.158C320.749 147.09 321.485 146.696 321.729 146.885C321.893 147.023 322 147.218 322.03 147.432C321.978 147.443 321.932 147.471 321.898 147.511C321.864 147.551 321.844 147.601 321.84 147.654C321.71 148.543 321.648 149.444 321.499 150.33C321.404 151.127 321.158 151.897 320.773 152.599C319.961 152.17 319.488 151.261 318.906 150.579C318.581 150.202 318.191 149.906 317.847 149.553C317.579 149.257 317.092 148.696 317.368 148.264Z" fill="#CBE1F8"/>
<path d="M305.693 146.274C306.059 147.172 306.722 147.889 307.236 148.694C307.477 149.071 307.642 149.476 307.845 149.876C307.951 150.166 308.156 150.408 308.424 150.558C308.744 150.692 309.031 150.478 309.237 150.235C309.555 149.788 309.828 149.309 310.049 148.806C310.59 147.729 311.095 146.635 311.565 145.522C311.582 145.486 311.591 145.447 311.591 145.408C311.591 145.369 311.582 145.33 311.565 145.294C311.659 145.12 311.736 144.937 311.795 144.747C312.025 144.016 311.795 143.269 311.034 142.995C310.671 142.9 310.293 142.877 309.921 142.93C309.536 142.945 309.154 143.01 308.785 143.121C308.243 143.307 307.721 143.576 307.174 143.762C306.798 143.854 306.434 143.992 306.091 144.172C305.341 144.662 305.39 145.53 305.693 146.274ZM306.319 144.772C306.601 144.615 306.902 144.495 307.215 144.413C308.013 144.139 308.768 143.671 309.621 143.592C310.054 143.551 311.215 143.373 311.245 144.093C311.267 144.676 310.877 145.21 310.579 145.675C310.558 145.704 310.543 145.737 310.535 145.772C310.526 145.807 310.525 145.843 310.53 145.879C310.536 145.915 310.548 145.949 310.567 145.979C310.585 146.01 310.61 146.037 310.639 146.058C310.319 146.789 309.978 147.511 309.621 148.226C309.38 148.699 309.153 149.197 308.871 149.649C308.82 149.731 308.633 149.966 308.638 149.969C308.571 149.942 308.498 149.78 308.465 149.72C308.149 149.061 307.787 148.425 307.382 147.818C306.938 147.202 306.389 146.548 306.178 145.803C306.091 145.486 305.983 144.988 306.319 144.785V144.772Z" fill="#CBE1F8"/>
<path d="M306.795 159.086C307.221 159.678 307.733 160.201 308.314 160.638C308.793 161.01 309.342 161.459 309.938 161.656C310.75 161.93 311.121 160.961 311.38 160.37C311.743 159.504 312.047 158.614 312.29 157.706C312.338 157.694 312.382 157.668 312.416 157.631C312.45 157.595 312.474 157.55 312.485 157.501C312.57 157.217 312.605 156.919 312.588 156.623C312.539 155.933 312.249 155.213 311.505 155.074C311.064 154.991 310.628 155.262 310.273 155.49C309.843 155.763 309.407 156.037 308.971 156.286C308.511 156.533 308.027 156.729 307.526 156.872C307.164 156.971 306.844 157.189 306.616 157.49C306.281 158.002 306.478 158.621 306.795 159.086ZM307.458 157.57C307.791 157.414 308.157 157.362 308.498 157.236C308.897 157.065 309.279 156.854 309.637 156.606C309.978 156.393 310.327 156.182 310.674 155.971C310.928 155.818 311.348 155.531 311.629 155.796C311.744 155.918 311.833 156.063 311.89 156.221C311.948 156.379 311.972 156.548 311.962 156.716C311.92 156.755 311.889 156.805 311.873 156.861C311.622 157.833 311.319 158.792 310.966 159.732C310.814 160.157 310.613 160.562 310.365 160.939C310.208 161.155 310.076 161.054 309.867 160.939C308.936 160.408 307.926 159.685 307.334 158.768C307.052 158.333 306.879 157.841 307.458 157.57Z" fill="#CBE1F8"/>
<path d="M297.221 139.358C297.259 139.397 297.308 139.426 297.361 139.44C297.414 139.454 297.47 139.454 297.524 139.44C297.941 139.328 298.336 139.689 298.734 139.747C299.053 139.788 299.378 139.751 299.681 139.64C300.25 139.454 301.056 139.232 301.197 138.545C301.368 137.724 300.656 136.854 300.228 136.238C299.603 135.403 299.06 134.509 298.604 133.569C298.596 133.514 298.574 133.462 298.539 133.419C298.539 133.402 298.525 133.389 298.52 133.372C298.495 133.308 298.451 133.254 298.394 133.217C298.338 133.18 298.271 133.161 298.203 133.164C298.126 133.127 298.042 133.106 297.956 133.103C297.871 133.099 297.786 133.114 297.706 133.146C297.626 133.178 297.554 133.226 297.494 133.288C297.434 133.349 297.387 133.423 297.356 133.504C297.143 134.006 297.023 134.543 297.001 135.088C296.944 135.756 296.852 136.418 296.79 137.086C296.722 137.88 296.72 138.709 297.221 139.358ZM297.586 138.797C297.28 138.285 297.369 137.541 297.432 136.982C297.494 136.424 297.575 135.928 297.608 135.398C297.624 135.004 297.678 134.612 297.767 134.229C297.798 134.055 297.862 133.889 297.954 133.739C297.976 133.751 297.996 133.767 298.014 133.785C298.369 134.567 298.798 135.312 299.294 136.011C299.565 136.421 299.868 136.832 300.136 137.256C300.333 137.531 300.478 137.841 300.564 138.17C300.639 138.561 300.439 138.663 300.122 138.808C299.849 138.931 299.567 139.031 299.278 139.109C298.685 139.257 298.176 138.764 297.586 138.797Z" fill="#CBE1F8"/>
<path d="M288.19 141.485C288.19 142.215 288.583 142.672 289.216 142.965C289.905 143.294 290.633 143.532 291.382 143.671C291.864 143.753 292.464 143.822 292.76 143.318C293.055 142.815 292.995 142.237 292.941 141.717C292.858 141.014 292.734 140.317 292.567 139.629C292.462 139.175 292.297 138.589 292.234 138.192C292.229 138.148 292.216 138.105 292.194 138.066C292.172 138.028 292.142 137.994 292.107 137.968C292.026 137.598 291.907 137.229 291.585 137.048C291.062 136.755 290.616 137.048 290.283 137.458C289.85 138.006 289.441 138.6 289.062 139.188C288.623 139.859 288.182 140.68 288.19 141.485ZM289.638 139.429C290.004 138.825 290.417 138.252 290.876 137.716C291.417 137.168 291.52 138.329 291.612 138.668C291.627 138.73 291.661 138.786 291.709 138.827C291.904 139.79 292.213 140.743 292.305 141.717C292.332 141.991 292.475 142.891 292.145 143.069C291.918 143.131 291.678 143.125 291.455 143.05C291.088 142.973 290.726 142.872 290.372 142.749C289.868 142.574 288.867 142.336 288.824 141.654C288.77 140.866 289.205 140.064 289.641 139.429H289.638Z" fill="#CBE1F8"/>
<path d="M296.008 148.343C296.091 148.093 296.137 147.831 296.143 147.566C296.177 147.338 296.248 147.117 296.352 146.912C296.456 146.723 296.571 146.54 296.695 146.365C296.851 146.101 296.988 145.826 297.107 145.543C297.345 144.996 297.491 143.929 298.144 143.732C298.796 143.535 299.107 144.536 299.243 144.98C299.397 145.494 299.486 146.025 299.605 146.548C299.645 146.586 299.676 146.633 299.695 146.685C299.887 147.232 300.22 147.826 300.006 148.428C299.871 148.809 299.267 148.644 299.405 148.261C299.48 147.933 299.433 147.588 299.272 147.292C299.228 147.277 299.188 147.251 299.156 147.215C299.125 147.18 299.104 147.136 299.094 147.09C298.961 146.594 298.883 146.085 298.758 145.587C298.692 145.303 298.608 145.023 298.506 144.75C298.467 144.645 298.419 144.544 298.36 144.449C298.301 144.347 298.292 144.345 298.255 144.383C298.106 144.601 298.002 144.848 297.951 145.108C297.816 145.487 297.66 145.858 297.483 146.219C297.299 146.614 296.993 146.953 296.833 147.355C296.674 147.758 296.747 148.239 296.547 148.661C296.371 149.039 295.835 148.718 296.008 148.343Z" fill="#CBE1F8"/>
<path d="M291.744 129.045C291.855 129.798 292.619 130.173 293.009 130.772C293.151 131.031 293.261 131.307 293.336 131.593C293.398 131.785 293.523 132.343 293.78 132.346C294.183 132.346 294.078 131.229 294.091 130.977C294.143 129.929 294.611 128.93 294.884 127.928C294.895 127.888 294.914 127.851 294.939 127.819C294.965 127.786 294.996 127.759 295.032 127.738C295.068 127.718 295.107 127.705 295.147 127.7C295.188 127.695 295.229 127.698 295.269 127.709C295.308 127.721 295.345 127.739 295.377 127.765C295.41 127.791 295.437 127.822 295.457 127.858C295.477 127.894 295.49 127.934 295.495 127.975C295.5 128.016 295.496 128.058 295.485 128.098C295.188 129.193 294.722 130.222 294.706 131.366C294.706 132.047 294.592 132.885 293.78 132.973C293.009 133.057 292.778 131.878 292.597 131.344C292.297 130.485 291.287 130.17 291.143 129.201C291.087 128.815 291.685 128.637 291.744 129.045Z" fill="#CBE1F8"/>
<path d="M347.583 169.188C347.812 168.606 347.936 167.986 347.948 167.36C347.967 166.941 348.002 165.329 348.787 165.564C349.023 165.633 349.166 165.901 349.286 166.112C349.477 166.465 349.702 166.798 349.957 167.108C350.588 167.82 351.31 168.35 351.719 169.248C351.754 169.322 351.759 169.406 351.733 169.484C352.028 169.979 352.366 170.48 352.22 171.068C352.193 171.144 352.139 171.207 352.069 171.244C351.998 171.281 351.916 171.29 351.84 171.268C351.763 171.247 351.697 171.197 351.656 171.128C351.614 171.059 351.6 170.977 351.616 170.899C351.746 170.384 351.137 169.779 350.948 169.33C350.917 169.261 350.911 169.182 350.931 169.109C350.585 168.629 350.188 168.189 349.748 167.795C349.343 167.363 348.993 166.881 348.706 166.361C348.687 166.435 348.676 166.511 348.66 166.577C348.584 167.086 348.539 167.6 348.525 168.115C348.444 168.983 347.891 169.719 347.864 170.578C347.864 170.662 347.832 170.742 347.773 170.801C347.715 170.86 347.636 170.893 347.553 170.893C347.471 170.893 347.391 170.86 347.333 170.801C347.275 170.742 347.242 170.662 347.242 170.578C347.27 170.098 347.386 169.626 347.583 169.188Z" fill="#CBE1F8"/>
<path d="M339.849 115.976C339.795 115.579 340.391 115.407 340.45 115.809C340.534 116.409 340.856 116.931 340.97 117.525C341.084 118.119 340.945 118.784 341.013 119.408C341.595 119.156 342.055 118.527 342.637 118.289C343.506 117.93 344.383 117.692 345.074 117.011C345.361 116.737 345.802 117.169 345.515 117.454C344.808 118.155 343.942 118.453 343.038 118.801C342.256 119.102 341.685 119.991 340.851 120.114C340.771 120.135 340.687 120.123 340.616 120.081C340.544 120.04 340.492 119.972 340.469 119.893C340.301 119.225 340.399 118.546 340.385 117.867C340.372 117.189 339.939 116.627 339.849 115.976Z" fill="#CBE1F8"/>
<path d="M362.728 89.4987C363.736 90.625 365.03 91.4497 366.47 91.8827C367.91 92.3156 369.439 92.3403 370.892 91.9539C372.345 91.5675 373.664 90.7849 374.707 89.6916C375.75 88.5984 376.475 87.2364 376.804 85.7546C377.132 84.2825 377.056 82.7478 376.585 81.3161C376.113 79.8844 375.264 78.61 374.129 77.6304C372.994 76.6508 371.616 76.0032 370.143 75.7573C368.671 75.5115 367.16 75.6768 365.773 76.2354C365.612 76.3024 365.435 76.323 365.262 76.295C365.089 76.267 364.927 76.1915 364.794 76.0767C364.661 75.9619 364.562 75.8124 364.507 75.6444C364.453 75.4764 364.445 75.2964 364.485 75.1242L367.365 62.5862L404.794 71.3746L401.916 83.9126C401.876 84.0852 401.79 84.2433 401.667 84.3697C401.544 84.496 401.389 84.5859 401.219 84.6293C401.049 84.6728 400.87 84.6683 400.702 84.6162C400.535 84.5641 400.384 84.4666 400.268 84.3341C399.263 83.2107 397.973 82.387 396.538 81.9525C395.103 81.5179 393.577 81.4891 392.127 81.8691C390.677 82.2492 389.357 83.0235 388.312 84.1082C387.266 85.1929 386.534 86.5464 386.195 88.0219C385.856 89.4974 385.924 91.0385 386.39 92.478C386.856 93.9175 387.704 95.2004 388.84 96.1874C389.977 97.1745 391.359 97.828 392.836 98.077C394.314 98.326 395.831 98.1611 397.223 97.6001C397.385 97.5336 397.562 97.5134 397.735 97.5417C397.908 97.5699 398.07 97.6456 398.203 97.7604C398.337 97.8753 398.437 98.0249 398.492 98.193C398.547 98.3612 398.555 98.5414 398.516 98.7141L395.647 111.206L358.218 102.417L361.088 89.9257C361.127 89.7532 361.212 89.5949 361.334 89.468C361.456 89.3412 361.61 89.2508 361.779 89.2067C361.949 89.1626 362.127 89.1665 362.294 89.218C362.462 89.2695 362.612 89.3667 362.728 89.4987Z" fill="#699FCE"/>
<path d="M396.151 79.2433C396.454 78.9696 396.635 78.57 396.946 78.2909C397.258 78.0117 397.826 77.9132 398.265 77.7982C398.769 77.6331 399.265 77.4422 399.751 77.2262C400.308 77.0279 400.851 76.7892 401.375 76.5118C401.42 76.4858 401.473 76.4755 401.525 76.4825C401.576 76.4896 401.624 76.5136 401.661 76.5509C401.698 76.5882 401.722 76.6367 401.729 76.689C401.736 76.7413 401.726 76.7944 401.7 76.8403C401.49 77.1927 401.314 77.5648 401.175 77.9515C401.056 78.3976 401.033 78.8641 401.107 79.32C401.177 80.1739 400.587 80.8691 400.192 81.5615C400.16 81.6163 400.109 81.6562 400.048 81.6724C399.987 81.6886 399.923 81.6797 399.869 81.6478C399.814 81.6158 399.775 81.5634 399.759 81.5021C399.743 81.4407 399.752 81.3755 399.783 81.3207C399.973 80.9868 400.192 80.6693 400.376 80.3299C400.598 79.9241 400.677 79.4542 400.601 78.997C400.552 78.3903 400.674 77.7821 400.953 77.2426C400.682 77.3576 400.436 77.4616 400.173 77.5628C399.67 77.7572 399.171 77.9734 398.668 78.1622C398.221 78.3292 397.696 78.3401 397.287 78.6084C396.946 78.83 396.773 79.2926 396.475 79.5718C396.264 79.7935 395.929 79.4568 396.151 79.2433Z" fill="#CBE1F8"/>
<path d="M389.329 70.0663C389.394 69.7625 389.852 69.8912 389.787 70.1922C389.594 71.0872 390.217 71.7003 390.561 72.4584C390.871 73.1736 391.101 73.9219 391.246 74.689C391.416 74.5166 391.579 74.3387 391.733 74.1417C391.954 73.8442 392.195 73.5617 392.453 73.2959C392.994 72.7923 393.641 72.4338 394.039 71.7961C394.202 71.5361 394.613 71.7742 394.448 72.0369C394.058 72.661 393.463 73.0551 392.916 73.5204C392.625 73.7878 392.361 74.0839 392.128 74.4044C391.866 74.7349 391.576 75.0417 391.262 75.3213C391.233 75.3504 391.196 75.3713 391.156 75.382C391.117 75.3927 391.075 75.3928 391.035 75.3823C390.995 75.3719 390.959 75.3512 390.929 75.3222C390.9 75.2933 390.878 75.2571 390.867 75.2173C390.731 74.2642 390.457 73.3365 390.055 72.4639C389.868 72.0917 389.616 71.755 389.451 71.3691C389.275 70.9589 389.232 70.5027 389.329 70.0663Z" fill="#CBE1F8"/>
<path d="M382.949 78.8246C383.536 78.05 384.302 77.5957 385.158 77.1633C385.759 76.8595 386.536 76.1369 387.261 76.3695C387.321 76.3868 387.372 76.4271 387.403 76.4819C387.434 76.5366 387.442 76.6014 387.426 76.6624C387.326 76.9735 387.246 77.2907 387.185 77.6121C387.145 77.9953 387.296 78.3812 387.312 78.7644C387.342 79.5855 386.988 80.3901 386.619 81.1045C386.479 81.3782 386.078 81.1373 386.211 80.8636C386.601 80.1082 386.944 79.2762 386.804 78.4004C386.728 78.0965 386.701 77.7822 386.725 77.4698C386.768 77.2446 386.825 77.0224 386.896 76.8047C386.677 76.854 386.468 76.9411 386.278 77.062C385.981 77.2235 385.699 77.4178 385.399 77.5711C384.635 77.957 383.888 78.3593 383.36 79.0572C383.176 79.2981 382.759 79.06 382.949 78.8246Z" fill="#CBE1F8"/>
<path d="M375.091 68.2024C375.185 69.1905 376.049 69.716 376.799 70.1922C377.198 70.4637 377.546 70.8058 377.825 71.2021C377.955 71.38 378.057 71.6428 378.206 71.8426C378.181 71.0907 378.354 70.3455 378.707 69.6831C378.898 69.3681 379.06 69.0354 379.189 68.6896C379.275 68.2748 379.2 67.8423 378.978 67.4826C378.84 67.2089 379.249 66.9653 379.387 67.2418C379.585 67.5975 379.696 67.9966 379.709 68.405C379.685 68.7604 379.577 69.1049 379.395 69.4094C379.171 69.7959 378.977 70.1995 378.815 70.6164C378.655 71.1538 378.619 71.7213 378.71 72.275C378.734 72.4447 378.61 72.6281 378.417 72.5706C377.992 72.442 377.776 72.0479 377.565 71.6839C377.28 71.1978 376.878 70.7928 376.395 70.507C375.524 69.9979 374.717 69.2726 374.614 68.2024C374.587 67.8932 375.061 67.8959 375.091 68.2024Z" fill="#CBE1F8"/>
<path d="M367.143 70.6329C367.741 70.1758 368.432 69.9212 369.103 69.601C369.601 69.3629 370.099 68.9414 370.681 68.9907C370.744 68.9921 370.803 69.018 370.847 69.063C370.891 69.1079 370.916 69.1684 370.917 69.2315C370.915 69.659 370.886 70.0859 370.83 70.5097C370.8 70.912 370.83 71.3144 370.808 71.7167C370.736 72.4831 370.464 73.2163 370.018 73.8406C369.842 74.0896 369.43 73.8406 369.606 73.597C370.024 73.0188 370.277 72.3366 370.34 71.6236C370.372 71.2514 370.34 70.8792 370.356 70.5097C370.373 70.1402 370.432 69.8255 370.443 69.4833C370.002 69.5572 369.579 69.9076 369.187 70.0855C368.552 70.3371 367.946 70.6592 367.381 71.0461C367.138 71.235 366.902 70.8162 367.143 70.6329Z" fill="#CBE1F8"/>
<path d="M377.987 86.7262C378.152 87.2271 378.591 87.5336 378.894 87.9469C379.113 88.2425 379.297 88.5846 379.544 88.861C379.546 88.4564 379.593 88.0534 379.684 87.6595C379.816 87.2069 379.992 86.7686 380.209 86.3512C380.401 85.9837 380.559 85.5988 380.68 85.2017C380.799 84.7164 380.776 84.2067 380.613 83.7347C380.521 83.4391 380.978 83.3132 381.07 83.6061C381.36 84.5394 381.192 85.3741 380.8 86.239C380.586 86.6588 380.395 87.0901 380.228 87.5309C380.065 88.1284 379.994 88.7478 380.017 89.3674C380.017 89.4093 380.005 89.4505 379.984 89.4866C379.963 89.5228 379.933 89.5527 379.897 89.5735C379.861 89.5942 379.82 89.6051 379.778 89.6049C379.737 89.6048 379.696 89.5936 379.66 89.5726C379.184 89.2688 378.907 88.7816 378.593 88.3246C378.242 87.8128 377.743 87.4652 377.54 86.8521C377.432 86.5592 377.887 86.4333 377.987 86.7262Z" fill="#CBE1F8"/>
<path d="M383.274 93.1279C383.631 92.5532 384.059 92.0331 384.432 91.4639C384.603 91.2093 385.014 91.4502 384.841 91.7075C384.511 92.2029 384.137 92.6709 383.81 93.169C383.482 93.6671 382.998 94.3705 382.998 95.0274C382.998 95.2682 383.168 95.3613 383.382 95.4078C383.894 95.5118 384.465 95.323 384.979 95.312C385.585 95.2956 386.092 95.5857 386.625 95.8403C387.185 96.0715 387.711 96.3781 388.19 96.7517C388.425 96.9515 388.087 97.2991 387.854 97.091C387.326 96.6986 386.749 96.3784 386.138 96.1386C385.855 95.9788 385.549 95.8652 385.231 95.8019C384.918 95.7813 384.603 95.7978 384.294 95.8512C383.609 95.9361 382.646 95.9935 382.527 95.1013C382.435 94.4253 382.938 93.6644 383.274 93.1279Z" fill="#CBE1F8"/>
<path d="M389.175 106.813C389.371 106.385 389.531 105.942 389.654 105.488C389.825 105.016 390.02 104.554 390.239 104.103C390.445 103.642 390.611 103.163 390.734 102.672C390.804 102.382 390.88 101.919 391.248 101.878C391.887 101.81 391.993 103.036 392.198 103.416C392.404 103.797 392.905 103.923 393.254 104.059C393.645 104.201 394 104.429 394.294 104.727C394.507 104.946 394.172 105.275 393.958 105.064C393.433 104.516 392.675 104.467 392.101 104.01C391.581 103.597 391.681 102.888 391.289 102.409C391.252 102.497 391.225 102.589 391.208 102.683C391.151 102.926 391.089 103.164 391.01 103.4C390.867 103.816 390.702 104.225 390.515 104.623C390.322 105.034 390.156 105.458 390.017 105.89C389.904 106.287 389.758 106.674 389.581 107.045C389.445 107.33 389.034 107.086 389.175 106.813Z" fill="#CBE1F8"/>
<path d="M380.366 100.099C380.388 99.7924 380.862 99.7897 380.843 100.099C380.817 100.525 380.899 100.951 381.081 101.336C381.26 101.73 381.539 102.056 381.747 102.431C382.069 103.011 381.899 103.679 381.939 104.314C382.151 104.087 382.378 103.876 382.619 103.682C382.984 103.386 383.393 103.164 383.661 102.762C384.137 102.048 384.202 101.12 384.551 100.337C384.673 100.063 385.093 100.299 384.96 100.581C384.608 101.402 384.527 102.319 384.026 103.071C383.752 103.418 383.421 103.715 383.046 103.947C382.648 104.26 382.285 104.616 381.964 105.009C381.934 105.038 381.897 105.059 381.858 105.069C381.818 105.08 381.776 105.08 381.736 105.069C381.696 105.058 381.66 105.037 381.63 105.008C381.601 104.979 381.58 104.942 381.568 104.902C381.317 104.081 381.715 103.167 381.184 102.414C380.689 101.73 380.323 100.961 380.366 100.099Z" fill="#CBE1F8"/>
<path d="M370.751 95.3777C371.047 94.9069 371.318 94.4209 371.564 93.9217C371.712 93.6233 371.888 93.2319 372.197 93.0705C372.313 93.0193 372.444 93.0161 372.563 93.0617C372.681 93.1072 372.777 93.1978 372.83 93.3141C372.93 93.4843 373.004 93.6688 373.05 93.8614C373.126 94.1066 373.223 94.3447 373.339 94.5731C373.767 95.4215 374.365 96.1632 374.606 97.0993C374.617 97.1587 374.606 97.2202 374.575 97.2716C374.543 97.323 374.494 97.3605 374.436 97.3767C374.378 97.3929 374.317 97.3866 374.264 97.359C374.21 97.3315 374.169 97.2847 374.149 97.2279C373.959 96.4862 373.534 95.8594 373.15 95.2162C372.968 94.9093 372.81 94.588 372.679 94.2556C372.608 94.0667 372.565 93.8697 372.487 93.6835C372.464 93.6233 372.432 93.567 372.392 93.5166C372.392 93.5166 372.392 93.5166 372.392 93.5303C372.174 93.7773 372.003 94.0631 371.888 94.3732C371.688 94.7701 371.469 95.156 371.236 95.5337C371.003 95.9114 370.765 96.2344 370.524 96.5792C370.283 96.9241 370.099 97.31 370.234 97.7644C370.246 97.8237 370.234 97.8852 370.203 97.9367C370.171 97.9881 370.122 98.0256 370.064 98.0418C370.007 98.058 369.945 98.0517 369.892 98.0241C369.839 97.9965 369.798 97.9497 369.777 97.893C369.466 96.8885 370.262 96.1441 370.751 95.3777Z" fill="#CBE1F8"/>
<path d="M360.866 99.735C361.589 97.8601 363.573 97.2224 365.062 96.114C365.098 96.0937 365.139 96.0832 365.18 96.0836C365.222 96.084 365.262 96.0952 365.298 96.1161C365.334 96.137 365.364 96.167 365.385 96.203C365.406 96.2391 365.418 96.2801 365.419 96.322C365.412 96.7655 365.444 97.2087 365.514 97.6467C365.641 98.0733 365.795 98.4911 365.976 98.8974C366.236 99.6992 366.226 100.565 365.949 101.361C365.857 101.656 365.408 101.53 365.492 101.235C365.757 100.458 365.744 99.6115 365.457 98.8427C365.273 98.4377 365.127 98.0162 365.021 97.5837C364.979 97.312 364.956 97.0376 364.953 96.7626C363.632 97.6357 361.927 98.2816 361.323 99.8526C361.215 100.148 360.755 100.025 360.866 99.735Z" fill="#CBE1F8"/>
<path d="M372.254 103.646C372.686 103.282 372.997 102.793 373.147 102.245C373.267 101.736 373.449 101.244 373.688 100.78C374.035 100.233 375.026 99.7076 375.491 100.395C375.762 100.794 375.613 101.456 375.591 101.905C375.564 102.412 375.732 102.909 376.06 103.293C376.474 103.805 377.337 104.719 376.672 105.365C376.452 105.578 376.13 105.242 376.336 105.025C376.755 104.618 375.776 103.709 375.543 103.4C375.299 103.062 375.153 102.662 375.12 102.245C375.072 101.769 375.207 101.29 375.139 100.811C375.088 100.444 374.75 100.537 374.509 100.657C374.181 100.862 373.945 101.188 373.851 101.566C373.697 101.985 373.599 102.42 373.431 102.833C373.249 103.284 372.956 103.68 372.581 103.985C372.354 104.18 372.016 103.84 372.254 103.646Z" fill="#CBE1F8"/>
<path d="M199.051 212.156C204.533 218.325 243.198 246.053 234.961 256.527C225.1 269.076 210.507 277.916 196.653 265.833C187.087 257.486 178.346 248.22 170.553 238.165C165.434 231.563 160.586 224.239 159.671 215.902C158.756 207.566 163.046 198.093 171.04 195.827C176.535 194.267 182.504 196.374 187.097 199.809C191.691 203.244 195.24 207.861 199.051 212.156Z" fill="#FCB9A4"/>
<path d="M153.047 40.4825C152.83 38.6707 152.308 36.5495 150.611 35.9063C149.843 35.6562 149.015 35.6696 148.256 35.9446C145.671 36.7657 143.768 39.5739 142.122 41.6238C140.211 44.0023 138.562 46.7228 138.224 49.8347L151.545 58.0127C152.105 58.3549 152.898 58.6778 153.347 58.2125C153.524 57.995 153.636 57.7311 153.67 57.4517C154.211 54.7366 153.618 52.662 153.523 50.0263C153.418 46.8241 153.426 43.6711 153.047 40.4825Z" fill="#FE554E"/>
<path d="M106.152 155.908C112.919 155.769 119.787 155.454 126.5 155.49C157.107 155.654 186.345 187.824 200.597 212.336C201.287 213.521 201.98 214.824 201.828 216.19C201.642 217.857 200.264 219.099 198.946 220.123C192.852 224.845 186.028 228.515 178.749 230.983C168.682 234.396 171.535 252.693 173.26 261.172C174.838 268.928 174.916 276.956 176.459 284.647C178.316 293.9 179.339 303.4 180.739 312.736L120.959 319.288C111.255 320.353 101.493 321.418 91.7486 320.835C75.9509 319.89 60.0478 314.644 44.5885 318.065C43.1998 318.371 51.0581 299.525 51.5209 298.556C54.1954 292.948 56.9619 287.211 57.5709 281.017C58.1367 275.27 56.8076 269.541 55.5976 263.903C53.9734 256.333 52.1625 248.806 50.3921 241.271C48.768 234.366 47.9911 226.53 45.3004 220.005C40.8204 209.134 38.839 195.028 41.0532 183.453C42.2253 177.314 44.9837 171.276 49.7939 167.349C53.6296 164.218 58.4561 162.644 63.2122 161.349C77.4533 157.468 91.5077 156.215 106.152 155.908Z" fill="#AF78FA"/>
<path d="M138.053 163.555C139.751 165.895 141.792 167.967 143.77 170.212C144.911 171.507 145.899 172.932 146.715 174.457C146.892 174.734 146.994 175.053 147.013 175.382C146.975 175.726 146.848 176.055 146.645 176.334C145.021 179.022 144.601 179.788 141.534 180.166C138.808 180.503 136.056 180.683 133.313 180.795C127.793 181.028 122.263 180.834 116.771 180.212C105.835 178.951 95.0266 175.833 85.4225 170.324C84.7972 169.96 84.134 169.53 83.9716 168.887C83.8092 168.244 84.1962 167.595 84.5806 167.012C86.8409 163.577 89.5235 160.279 90.8932 156.532C92.1465 153.097 92.2223 149.471 92.29 145.907C92.5606 131.782 87.2794 107.549 104.287 98.2132C111.257 94.3815 121.07 94.2309 126.857 98.9659C131.651 102.885 132.864 109.057 133.468 114.827C134.385 123.61 134.483 132.461 133.76 141.263C133.286 147.01 133.276 153.125 135.33 158.585C136.011 160.359 136.927 162.031 138.053 163.555Z" fill="#FCB9A4"/>
<path d="M133.749 141.266C134.449 132.738 134.376 124.164 133.533 115.65C132.721 109.78 131.134 103.881 126.949 99.8444C123.016 96.0647 117.332 94.8112 111.929 95.676C111.652 95.7609 111.381 95.8633 111.117 95.9826C107.836 97.466 105.354 101.29 103.997 104.497C100.579 112.59 100.403 121.31 103.621 129.404C108.494 141.676 120.821 150.522 133.722 151.182C133.435 147.882 133.445 144.563 133.749 141.266Z" fill="#F5865E"/>
<path d="M160.131 119.104C157.218 129.486 150.096 140.562 139.155 142.85C128.214 145.138 116.958 141.641 108.434 134.407C99.4389 126.76 96.3287 117.041 90.7253 107.16C85.6093 98.1284 82.3339 89.2907 82.0903 78.57C81.7708 64.4337 87.0304 51.0335 98.3832 42.3957C104.441 37.7894 111.983 34.7623 119.53 35.4794C120.308 35.5542 121.073 35.6573 121.825 35.7886C141.483 39.2263 153.567 61.8554 158.231 79.4048C161.674 92.3588 163.753 106.194 160.131 119.104Z" fill="#FCB9A4"/>
<path d="M133.357 125.673C132.863 124.964 132.553 124.14 132.455 123.278C132.398 122.416 132.726 121.491 133.435 121.015C133.905 120.735 134.439 120.585 134.984 120.58C136.494 120.487 137.994 120.826 139.501 120.922C142.239 121.09 144.965 120.452 147.352 119.085C148.594 118.371 150.123 117.443 151.323 118.234C152.592 119.055 152.27 121.02 151.65 122.413C150.783 124.368 149.634 126.182 148.242 127.797C147.195 129.009 145.96 130.134 144.452 130.605C143.496 130.874 142.496 130.942 141.513 130.805C139.865 130.604 138.281 130.041 136.871 129.154C135.462 128.268 134.263 127.079 133.357 125.673Z" fill="#FE554E"/>
<path d="M140.4 124.389C137.684 124.156 135.064 123.266 132.758 121.795C132.916 121.482 133.148 121.215 133.435 121.018C133.905 120.738 134.439 120.588 134.984 120.582C136.494 120.489 137.994 120.829 139.501 120.924C142.239 121.092 144.965 120.455 147.352 119.088C148.594 118.374 150.123 117.446 151.323 118.237C151.477 118.336 151.615 118.46 151.731 118.604C150.935 119.603 150.057 120.534 149.106 121.384C147.752 122.597 146.16 123.724 144.195 124.192C142.949 124.462 141.667 124.529 140.4 124.389Z" fill="white"/>
<path d="M158.055 120.569C158.997 121.568 159.841 122.61 160.578 123.382C162.34 125.232 164.213 127.009 165.634 129.152C166.446 130.375 167.109 131.957 166.471 133.279C166.013 134.229 164.966 134.782 163.926 134.88C162.887 134.979 161.847 134.689 160.867 134.333C158.445 133.435 156.436 131.09 154.479 129.425C152.522 127.761 150.559 125.876 149.663 123.437C148.886 121.316 149.252 117.843 151.999 117.416C154.295 117.076 156.341 118.751 158.055 120.569Z" fill="#F5865E"/>
<path d="M158.799 54.192C156.415 52.3038 153.511 51.2106 150.486 51.0636C149.628 51.028 148.721 51.0636 147.966 50.6503C147.154 50.2015 146.661 49.3202 146.182 48.5046C138.99 36.2211 123.087 30.0958 109.503 33.6128C100.3 35.9967 91.8298 42.5161 86.0559 49.9989C78.8474 59.3402 72.459 75.2994 76.6602 87.0136C78.4657 92.0468 81.8466 96.426 83.33 101.566C84.6212 106.035 84.4128 110.803 85.1897 115.39C85.9666 119.978 88.2025 124.792 92.4632 126.56C92.8506 126.762 93.2952 126.823 93.7219 126.732C94.1902 126.582 94.4907 126.13 94.7533 125.709L100.795 115.965C102.197 113.704 103.629 111.367 104.076 108.734C104.839 104.256 102.644 99.8608 101.91 95.375C101.142 90.6045 103.02 76.49 110.004 77.1934C109.926 85.7409 123.022 86.0337 128.094 82.1746C129.905 80.8061 131.343 78.945 133.213 77.6614C137.201 74.9244 142.433 75.1981 147.211 75.7893C151.989 76.3805 157.048 77.1578 161.449 75.1817C165.851 73.2056 168.855 67.2445 165.994 63.3279C164.871 61.7897 163.558 60.7962 162.711 59.0938C161.993 57.5769 161.003 56.2073 159.793 55.0541C159.481 54.7393 159.146 54.4656 158.799 54.192Z" fill="#699FCE"/>
<path d="M31.6413 102.25C27.6783 105.647 22.3836 107.563 18.6994 111.337C13.8513 116.324 12.5601 124.474 15.6298 130.753C16.2064 131.927 16.9399 133.06 17.9902 133.832C18.8971 134.494 19.9798 134.85 21.0112 135.288C31.1378 139.596 36.3838 152.014 46.8001 155.542C53.026 157.654 60.3672 155.881 64.9744 151.162C66.7095 157.321 75.4556 160 80.282 155.851C84.023 152.632 84.7376 147.073 84.4074 142.117C83.8904 134.385 81.4785 126.834 81.4785 119.058C81.4785 115.587 82.0713 112.662 81.4568 109.309C80.8613 106.068 78.7499 102.976 80.079 99.5789C80.975 97.2854 83.2407 95.9169 85.1355 94.3623C93.6948 87.342 95.4219 73.2521 88.8115 64.3297C88.3186 63.5855 87.6722 62.958 86.9167 62.4904C82.7047 60.2105 76.5005 57.9142 71.7579 56.5321C65.8676 54.8187 59.5388 54.4383 53.6215 56.272C43.7331 59.3374 35.8208 69.7762 37.851 80.0316C38.3409 82.4948 39.3587 84.9198 39.2044 87.4351C39.0988 89.1155 38.4708 90.7194 37.851 92.2767C36.7682 94.9891 35.6854 97.7507 33.8528 100.014C33.1858 100.827 32.4454 101.576 31.6413 102.25Z" fill="#699FCE"/>
<path d="M149.755 100.493C148.802 98.3227 147.154 96.4698 146.055 94.3705C144.566 91.5323 143.722 88.3492 142.991 85.2428C142.617 83.6526 140.094 83.9345 140.471 85.5411C141.367 89.3482 142.401 93.2046 144.377 96.5984C145.335 98.2406 146.512 99.7705 147.403 101.459C148.553 103.649 146.862 104.812 145.159 105.819C143.751 106.64 145.289 108.693 146.686 107.869C149.628 106.134 151.228 103.857 149.755 100.493Z" fill="black"/>
<path d="M131.067 66.8586C128.468 67.0529 126.438 66.8969 124.738 64.7347C123.341 62.953 122.423 60.7825 121.167 58.894C118.896 55.4783 115.483 54.2138 111.58 53.7212C109.955 53.5187 109.571 56.0531 111.195 56.2584C113.65 56.5676 115.892 57.0658 117.784 58.7627C119.6 60.4049 120.691 62.9967 121.906 65.0577C124.118 68.8183 127.223 69.7105 131.362 69.3985C132.997 69.2835 132.694 66.7354 131.067 66.8586Z" fill="black"/>
<path d="M143.662 57.5639C135.888 51.7506 129.857 44.4018 119.267 45.8771C117.643 46.1042 117.941 48.6496 119.562 48.4252C129.345 47.0567 134.959 54.244 142.089 59.5783C143.402 60.5609 144.98 58.5492 143.662 57.5639Z" fill="black"/>
<path d="M68.6747 88.6393C64.6143 92.1974 61.0304 96.1304 60.6893 101.818C60.2372 109.366 66.1031 114.681 67.2049 121.778C67.4566 123.407 69.9768 123.114 69.725 121.48C68.7695 115.311 64.2949 110.573 63.3421 104.412C62.4244 98.4869 66.0815 94.3021 70.2041 90.6893C71.4277 89.6109 69.9145 87.5527 68.6747 88.6393Z" fill="black"/>
<path d="M44.713 114.635C44.6129 118.368 45.0514 122.025 45.2544 125.755C45.5088 130.312 44.0254 134.092 41.3293 137.708C40.3467 139.027 42.3336 140.62 43.3189 139.295C45.8662 135.882 47.558 132.275 47.7881 127.964C48.0182 123.653 47.1005 119.348 47.2169 115.024C47.2629 113.39 44.7563 112.985 44.713 114.635Z" fill="black"/>
<path d="M66.1086 71.9822C60.7461 72.6993 54.8613 74.3661 50.9904 78.4305C46.8731 82.7549 46.5104 88.2835 48.2537 93.8122C48.7517 95.3859 51.1014 94.4143 50.606 92.846C48.9981 87.7553 49.6423 82.8972 53.7785 79.3172C57.2244 76.3339 62.013 75.116 66.4036 74.5303C68.0251 74.3113 67.73 71.766 66.1086 71.9822Z" fill="black"/>
<path d="M79.1992 65.9034C75.821 73.5121 77.7916 81.3508 76.6791 89.3208C76.4517 90.963 78.9583 91.3462 79.1884 89.7122C80.2712 82.0241 78.2735 74.2539 81.5245 66.9325C82.1958 65.4135 79.8679 64.3981 79.1992 65.9034Z" fill="black"/>
<path d="M118.723 101.796C117.451 102.283 116.52 103.326 116.36 105.08C116.165 107.21 117.408 108.504 119.194 109.552C121.776 111.069 127.02 111.841 127.951 107.94C128.974 103.665 122.413 100.389 118.723 101.796Z" fill="#F59776"/>
<path d="M153.32 103.928C153.451 104.33 153.668 104.699 153.956 105.006C157.042 108.214 160.938 100.715 160.101 98.0107C159.395 95.7308 157.727 95.0657 155.711 96.1851C153.772 97.2607 152.465 101.478 153.32 103.928Z" fill="#F59776"/>
<path d="M130.303 95.7937C130.414 94.7482 130.525 93.6863 130.322 92.6544C130.119 91.6226 129.545 90.6154 128.611 90.1501C128.035 89.8764 127.577 89.9722 127.023 90.2514C126.713 90.4382 126.479 90.7288 126.359 91.0725C125.905 92.1016 125.983 93.0869 126.007 94.1762C126.032 95.2655 126.262 96.4643 127.047 97.2334C127.832 98.0025 129.313 98.0955 129.924 97.1814C130.16 96.7566 130.29 96.2804 130.303 95.7937Z" fill="black"/>
<path d="M150.505 87.1121C150.505 87.1121 150.505 87.1285 150.505 87.1367C150.472 87.3098 150.459 87.4861 150.465 87.6622C150.475 88.6672 150.641 89.6644 150.954 90.6181C151.19 91.3352 151.461 92.3452 152.2 92.6928C152.939 93.0403 153.797 92.6298 154.249 91.9811C154.701 91.3325 154.806 90.5032 154.82 89.7095C154.836 88.6147 154.671 87.4268 153.959 86.5893C152.987 85.4617 150.884 85.4508 150.505 87.1121Z" fill="black"/>
<path d="M121.728 85.24C121.78 85.324 121.85 85.3957 121.932 85.4504C122.014 85.5051 122.107 85.5416 122.204 85.5575C123.303 85.7874 124.64 85.6287 125.75 85.5329C126.932 85.4312 128.104 85.2353 129.256 84.9472C129.862 84.7939 130.46 84.6187 131.05 84.4162C131.546 84.2465 132.477 84.0741 132.696 83.5951C133.127 82.6454 131.884 81.5287 131.137 81.192C130.244 80.7842 129.229 80.7569 128.249 80.7897C127.209 80.8207 126.171 80.912 125.141 81.0634C124.515 81.1267 123.905 81.3009 123.338 81.578C122.574 82.0242 122.015 82.7583 121.785 83.6197C121.641 84.1096 121.473 84.8213 121.728 85.24Z" fill="black"/>
<path d="M155.334 77.1824C154.679 76.8587 153.963 76.6832 153.234 76.6679C152.736 76.6679 152.275 76.791 151.767 76.7801C150.457 76.7537 149.163 77.0635 148.004 77.6805C147.497 77.92 147.064 78.2924 146.748 78.7589C146.598 78.9957 146.518 79.2712 146.518 79.5526C146.518 79.834 146.598 80.1095 146.748 80.3463C147.154 80.8937 147.936 80.9621 148.616 80.9348C150.191 80.8716 151.75 80.5955 153.253 80.1137C154.043 79.8591 156.501 79.3172 156.255 78.102C156.154 77.6504 155.735 77.3658 155.334 77.1824Z" fill="black"/>
<path d="M176.871 293.227C174.434 283.557 174.085 273.633 173.936 263.703C173.798 254.305 173.343 244.922 173.165 235.513C172.851 218.916 172.678 201.539 164.906 186.469C164.148 185.002 161.961 186.297 162.716 187.764C170.753 203.356 170.333 221.557 170.691 238.663C170.883 247.821 171.286 256.968 171.438 266.131C171.595 275.472 172.133 284.819 174.415 293.906C174.83 295.51 177.274 294.831 176.871 293.227Z" fill="black"/>
<path d="M155.137 295.452C137.812 304.262 116.758 302.667 98.6187 297.461C97.0406 297.007 96.372 299.481 97.9447 299.924C116.78 305.33 138.459 306.791 156.414 297.658C157.879 296.922 156.596 294.71 155.137 295.452Z" fill="black"/>
<path d="M127.74 254.433C125.193 251.015 122.107 253.59 119.914 256.385C119.595 253.172 118.747 249.34 116.203 249.767C114.89 249.986 114.357 251.59 114.037 252.69C113.114 255.753 113.117 259.198 113.09 262.362C113.076 264.005 115.613 264.005 115.626 262.362C115.651 259.458 115.475 255.848 116.568 253.024C116.652 253.284 116.717 253.549 116.788 253.804C117.356 255.854 117.489 258.032 117.627 260.145C117.708 261.402 119.302 261.916 119.99 260.794C120.745 259.497 121.597 258.26 122.537 257.094C123.122 256.401 123.807 255.725 124.678 255.452C125.864 255.066 126.173 256.905 126.051 257.641C125.531 260.717 122.559 263.115 120.875 265.578C119.941 266.947 122.139 268.222 123.065 266.873C125.244 263.654 130.91 258.687 127.74 254.433Z" fill="white"/>
<path d="M103.277 202.461C100.57 199.763 97.5197 201.605 95.3704 204.103C95.0997 198.731 93.8843 191.316 88.3324 194.25C85.8069 195.589 85.8529 199.787 85.8962 202.188C85.9612 205.286 86.5134 208.379 87.1089 211.411C87.4283 213.031 89.8727 212.344 89.5451 210.73C88.752 206.693 87.8073 202.198 88.733 198.115C88.9496 197.146 89.3719 196.3 90.4411 196.289C91.9543 196.289 92.3143 199.226 92.5092 200.263C92.9992 202.869 92.8882 205.587 92.8963 208.225C92.8963 209.435 94.6991 210.067 95.2595 208.874C96.2312 206.802 98.5078 202.549 101.38 204.221C104.577 206.071 100.922 211.203 99.485 212.736C98.3589 213.935 100.148 215.746 101.277 214.55C104.217 211.441 106.943 206.107 103.277 202.461Z" fill="white"/>
<path d="M160.594 213.291C160.377 211.649 157.933 212.355 158.158 213.973C158.31 214.443 158.353 214.942 158.282 215.432C157.404 214.743 156.728 213.827 156.325 212.78C155.927 211.698 154.146 211.425 153.889 212.78C153.553 214.493 152.995 216.223 151.88 217.586C151.009 218.653 149.677 218.103 149.276 216.964C148.938 216.006 149.217 214.824 149.425 213.88C150.153 210.582 151.961 207.612 153.512 204.662C154.279 203.2 152.089 201.906 151.323 203.367C149.176 207.456 145.278 213.245 146.992 218.078C147.687 220.052 150.126 221.401 152.094 220.517C153.805 219.753 154.882 218.054 155.567 216.247C156.295 217.028 157.086 217.746 157.93 218.396C158.583 218.924 159.443 218.883 159.923 218.122C160.938 216.507 160.843 215.161 160.594 213.291Z" fill="white"/>
<path d="M192.614 190.739C191.68 188.642 190.245 186.8 189.341 184.696C188.757 183.327 186.794 184.51 187.373 185.859C188.567 188.626 191.209 191.256 191.377 194.387C191.515 196.949 185.064 191.979 184.307 191.377C183.494 190.728 182.035 191.281 182.412 192.496C182.788 193.711 184.805 201.314 181.456 200.737C180.059 200.496 178.985 199.163 178.246 198.049C176.835 195.931 176.18 193.377 175.809 190.884C175.587 189.42 173.392 190.044 173.611 191.494C174.264 195.778 176.413 202.497 181.535 203.05C183.229 203.233 184.634 201.919 185.184 200.409C185.784 198.766 185.738 196.933 185.43 195.162C188.01 197.078 191.342 198.898 193.123 196.306C194.268 194.625 193.353 192.408 192.614 190.739Z" fill="white"/>
<path d="M158.396 268.945C154.712 266.895 152.281 270.105 151.19 273.348C149.693 271.506 147.977 269.81 145.714 268.999C143.148 268.077 140.3 269.799 139.572 272.358C138.844 274.917 140.446 277.703 141.737 279.747C143.091 281.885 144.791 283.776 146.393 285.728C147.333 286.872 148.935 285.235 148.004 284.102C145.668 281.256 142.214 277.949 141.724 274.098C141.407 271.602 143.873 270.54 145.882 271.569C147.982 272.664 149.517 274.854 150.927 276.709C151.428 277.366 152.706 277.01 152.822 276.203C153.177 273.893 154.446 269.186 157.619 271.167C160.253 272.809 160.307 276.627 159.267 279.181C158.707 280.549 160.913 281.146 161.463 279.794C163 276.042 162.145 271.022 158.396 268.945Z" fill="white"/>
<path d="M90.682 268.124C89.3638 267.494 88.2052 269.492 89.5343 270.113C91.0339 270.828 92.5985 271.389 94.0901 272.125C95.3244 272.735 97.7742 273.847 97.8798 275.481C98.1504 279.192 89.4558 274.95 88.0753 274.572C87.1739 274.326 86.1804 275.393 86.7895 276.263C88.8819 279.241 91.7756 282.536 91.3777 286.39C87.8371 286.371 85.0625 281.918 83.2759 279.386C82.4313 278.187 80.4553 279.337 81.3107 280.549C83.9662 284.315 87.4364 289.371 92.6581 288.563C92.8495 288.513 93.0242 288.412 93.1641 288.27C93.304 288.129 93.404 287.952 93.4539 287.759C94.2498 284.031 92.7149 280.916 90.766 277.979C94.4068 279.348 98.8732 280.716 100.064 276.296C101.331 271.646 93.5893 269.506 90.682 268.124Z" fill="white"/>
<path d="M121.311 57.906C128.471 53.6446 136.158 51.9695 144.55 51.236C146.986 51.0225 148.729 50.8474 151.206 51.4605C150.28 47.2702 146.412 43.0963 142.303 41.8975C137.39 40.4661 133.016 41.331 128.322 43.1456C125.642 44.1829 122.957 45.2284 120.382 46.5093C115.044 49.1746 110.242 52.819 106.22 57.2573C101.856 62.0717 99.3604 67.3211 96.9729 73.3233C93.9764 80.8527 92.3928 90.2377 97.379 97.3018C96.8376 96.5245 98.0557 92.5887 98.2506 91.639C98.663 89.6444 99.178 87.673 99.7935 85.7327C100.895 82.2704 102.444 79.1859 104.149 76.011C107.568 69.6438 112.376 64.1477 118.209 59.9396C119.232 59.2097 120.266 58.5319 121.311 57.906Z" fill="#FE554E"/>
<path d="M114.213 56.97C110.267 60.9084 100.37 70.3291 100.949 71.547C97.0433 63.3361 96.3801 54.3042 96.9946 45.3023C97.111 43.6027 97.5116 41.58 99.0762 40.9423C100.262 40.4606 101.596 41.0217 102.728 41.6266C106.659 43.7437 110.213 46.5106 113.242 49.8128C114.682 51.3838 116.084 53.3928 115.648 55.492C115.41 55.763 114.901 56.283 114.213 56.97Z" fill="#FE554E"/>
<path d="M102.36 116.556C116.993 119.252 107.338 93.1717 103.805 88.497C103.318 87.8511 102.752 87.1997 101.983 86.9752C101.115 86.7207 100.2 87.0628 99.3604 87.3995C93.121 89.9038 90.9148 91.4228 90.8363 98.6484C90.7768 104.163 93.0019 110.245 97.2166 113.871C98.7027 115.149 100.427 116.203 102.36 116.556Z" fill="#FCB9A4"/>
<path d="M107.912 90.6428C101.144 84.5913 91.6403 87.9742 89.8997 96.8748C88.1375 105.89 93.5947 116.354 102.974 117.487C104.598 117.684 104.983 115.149 103.359 114.952C95.7792 114.036 92.6662 107.193 92.2791 100.197C91.8189 91.8881 99.8585 86.8439 106.355 92.6544C107.568 93.7547 109.132 91.7348 107.912 90.6428Z" fill="black"/>
<path d="M109.113 101.829C107.76 98.9139 105.408 96.9843 102.888 95.1095C101.572 94.1297 99.9966 96.1386 101.315 97.1239C103.442 98.7113 105.597 100.312 106.753 102.795C107.465 104.278 109.812 103.331 109.113 101.829Z" fill="black"/>
<path d="M114.286 58.5246C113.523 57.3422 113.006 56.0449 112.411 54.7722C111.799 53.5683 111.035 52.4504 110.137 51.4468C108.176 49.1267 105.827 47.1721 103.199 45.6718C102.116 45.0396 101.12 46.7447 102.214 47.3742C104.522 48.7201 106.608 50.424 108.393 52.4239C110.332 54.5642 111.071 57.1451 112.6 59.5208C113.285 60.5827 114.974 59.5947 114.286 58.5246Z" fill="black"/>
<path d="M150.668 48.0694C150.103 47.0906 149.426 46.1837 148.648 45.368C147.495 44.2212 145.941 43.589 144.712 42.5352C143.759 41.7142 142.371 43.1073 143.334 43.9311C144.298 44.7549 145.44 45.4255 146.515 46.1562C147.869 47.0868 148.651 48.5237 149.493 49.9031C149.604 50.0857 149.77 50.2269 149.968 50.3059C150.165 50.3848 150.382 50.3972 150.586 50.3412C150.791 50.2851 150.972 50.1637 151.103 49.995C151.234 49.8262 151.307 49.6193 151.312 49.405C151.312 49.2654 151.331 49.1313 151.342 48.989C151.37 48.7772 151.315 48.5626 151.189 48.3909C151.063 48.2191 150.876 48.1038 150.668 48.0694Z" fill="black"/>
<path d="M146.599 177.675C124.519 184.299 100.714 178.283 81.4785 166.426C80.3957 165.761 79.4212 167.469 80.4932 168.132C100.164 180.254 124.567 186.349 147.121 179.578C148.321 179.216 147.798 177.311 146.599 177.675Z" fill="black"/>
<path d="M25.4586 280.837C26.1558 280.265 26.8901 279.741 27.6567 279.268C42.7153 269.982 71.0325 279.197 87.2334 282.107C94.9824 283.497 102.742 284.811 110.513 286.048C111.958 286.278 114.102 287.063 115.534 286.809C117.11 286.535 119.013 284.934 120.453 284.201C123.846 282.424 127.383 280.945 131.026 279.778C136.61 278.059 142.344 277.131 147.961 275.601C154.026 273.959 160.133 272.478 166.281 271.159C167.981 270.798 169.8 270.456 171.424 271.074C171.882 271.226 172.285 271.512 172.583 271.895C174.938 275.24 166.923 277.834 165.03 278.658C162.941 279.564 149.918 283.585 150.142 285.079C150.299 286.174 151.818 286.278 152.898 286.086C159.576 284.898 166.216 283.59 172.862 282.255C174.284 281.917 175.734 281.716 177.193 281.652C178.21 281.652 179.307 281.797 180.046 282.504C181.15 283.557 180.991 285.484 180.076 286.71C179.161 287.936 177.702 288.604 176.286 289.13C170.009 291.443 163.065 291.935 157.199 295.17C158.049 296.068 159.481 295.915 160.694 295.704C166.189 294.735 171.706 293.904 177.244 293.211C178.508 293.052 179.821 292.904 181.034 293.315C182.247 293.725 183.305 294.858 183.199 296.142C183.067 297.956 181.191 298.942 179.743 299.558C172.377 302.702 164.097 302.388 157.099 306.4C157.489 307.136 158.404 307.38 159.224 307.495C163.747 308.122 168.322 307.065 172.886 307.016C174.556 306.997 176.586 307.366 177.16 308.951C176.077 311.305 174.811 312.123 172.353 312.711C169.064 313.5 165.737 313.995 162.407 314.542C157.096 315.413 151.878 316.371 146.537 317.006C141.394 317.613 136.938 317.975 131.784 317.498C123.537 316.74 115.242 316.688 106.986 317.342C100.825 317.83 94.6639 318.18 88.4759 318.473C85.7338 318.604 82.989 318.746 80.2441 318.782C63.9349 319.056 42.2524 317.32 26.9177 311.37C13.8053 306.266 15.4132 289.067 25.4586 280.837Z" fill="#FCB9A4"/>
<path d="M116.089 293.32C114.138 278.067 131.584 273.469 138.557 262.666C139.872 260.627 140.801 258.287 142.476 256.549C143.343 255.643 144.661 254.885 145.795 255.408C151.379 257.98 142.292 275.409 140.381 278.757C137.101 284.426 133.055 289.606 128.36 294.147C126.265 296.191 120.626 300.57 117.83 297.811C116.985 296.99 116.541 295.805 116.314 294.634C116.218 294.187 116.143 293.749 116.089 293.32Z" fill="#FCB9A4"/>
<path d="M24.0077 185.566C30.8184 170.4 46.1748 154.658 63.7995 164.089C70.4586 167.647 75.1064 174.199 78.2654 181.113C86.6758 199.524 80.4823 222.947 75.7506 241.772C76.5032 238.781 20.2965 230.797 16.1712 230.291C13.494 229.965 16.0764 215.943 19.008 203.641C21.0734 194.94 23.3256 187.093 24.0077 185.566Z" fill="#AF78FA"/>
<path d="M58.8242 210.721C60.7434 214.958 64.8011 213.71 68.2579 211.816C66.8584 214.827 66.0923 218.286 69.4381 219.463C74.2808 221.163 77.077 213.817 78.7337 210.491C79.3941 209.164 77.3802 208.102 76.7116 209.43C75.9943 210.872 75.3067 212.32 74.4973 213.713C73.7827 214.945 72.3101 217.695 70.5804 217.408C67.259 216.86 71.5766 210.409 72.4536 209.035C73.0978 208.025 71.7281 206.958 70.8294 207.538C68.6043 208.967 62.7087 213.77 60.849 209.684C58.9812 205.551 65.3696 201.243 68.515 200.146C69.901 199.661 69.2161 197.466 67.8275 197.956C63.1986 199.566 56.2608 205.059 58.8242 210.721Z" fill="white"/>
<path d="M35.7017 197.932C31.1297 198.501 31.0809 202.79 31.8199 206.69C29.4189 204.435 26.3763 202.647 24.2568 205.518C21.1898 209.673 27.275 214.586 29.9088 217.186C30.9618 218.223 32.5724 216.595 31.533 215.558C30.3907 214.43 29.2348 213.33 28.1656 212.131C27.2209 211.069 25.0688 208.819 25.862 207.24C27.3887 204.205 32.161 210.314 33.1923 211.57C33.9503 212.498 35.3579 211.499 35.0872 210.45C34.4104 207.872 31.6656 200.734 36.0752 200.184C40.5362 199.637 42.672 207.087 42.7559 210.45C42.7938 211.931 45.073 211.937 45.0351 210.45C44.9025 205.516 41.8166 197.171 35.7017 197.932Z" fill="white"/>
<path d="M53.026 173.023C50.6574 172.13 48.6949 173.118 47.2629 174.758C46.7216 172.108 45.4276 169.489 42.7776 169.437C38.0134 169.341 39.2775 176.638 39.9596 179.359C40.363 180.962 42.81 180.281 42.3959 178.677C42.2578 178.13 40.88 171.698 42.6828 171.999C45.046 172.39 45.1191 177.125 45.0757 178.759C45.027 180.297 47.0843 180.379 47.5661 179.099C48.278 177.21 50.0023 174.314 52.3926 175.541C54.6149 176.685 53.8976 180.059 53.2669 181.874C52.7255 183.439 55.1617 184.107 55.7031 182.558C56.8455 179.326 56.8455 174.465 53.026 173.023Z" fill="white"/>
<path d="M73.179 173.797C72.5186 172.976 73.6744 171.785 74.343 172.62C79.8922 179.556 82.6722 187.643 83.69 196.432C84.2612 201.388 84.6402 206.386 84.2693 211.37C84.0907 213.754 83.6765 216.11 83.4085 218.486C83.1757 220.558 82.9429 222.638 82.2824 224.625C81.9441 225.635 80.3551 225.2 80.6962 224.182C81.3729 222.156 81.5895 220.043 81.8277 217.928C82.074 215.738 82.434 213.568 82.6235 211.359C83.0187 206.775 82.6235 202.196 82.1742 197.63C81.3242 188.908 78.6931 180.681 73.179 173.797Z" fill="black"/>
<path d="M101.345 283.787C105.161 284.797 109.113 285.67 113.071 285.755C114.002 285.777 114.933 285.692 115.846 285.501C116.89 285.282 116.985 284.6 117.248 283.68C117.845 281.612 118.975 279.742 120.523 278.261C123.996 274.832 128.871 273.244 132.066 269.517C133.771 267.527 135.043 265.077 136.448 262.866C137.743 260.788 139.211 258.826 140.836 257.001C141.551 256.21 142.752 257.345 142.038 258.136C138.462 262.089 136.34 267.067 132.888 271.09C129.275 275.308 123.314 276.625 120.071 281.308C119.463 282.265 119.015 283.318 118.745 284.422C118.577 285 118.425 285.698 118.006 286.155C116.923 287.326 115.028 287.378 113.553 287.414C109.352 287.52 105.021 286.475 100.982 285.408C99.956 285.139 100.319 283.516 101.345 283.787Z" fill="black"/>
<path d="M298.677 39.6067L297.762 36.1527C297.329 34.4831 297.008 33.3755 296.798 32.83C296.403 31.6531 296.342 30.6276 296.614 29.7536C296.859 29.0591 297.294 28.4489 297.867 27.9938C298.507 27.4386 299.186 26.9326 299.9 26.4802C303.837 24.0256 308.101 22.1546 312.563 20.9242C317.014 19.6981 322.162 20.0566 328.009 21.9998C332.068 23.2771 335.083 25.4758 337.056 28.5959C339.028 31.716 340.201 34.89 340.575 38.1178C340.948 41.3511 340.866 43.8399 340.328 45.5842C338.868 50.2973 336.512 54.0086 333.261 56.7182C330.009 59.4278 326.594 61.1986 323.018 62.0306C319.441 62.8663 317.283 63.4064 316.545 63.6509C315.405 63.9629 314.322 64.6991 313.297 65.8596C312.272 67.0201 311.625 68.0373 311.356 68.9113L309.139 76.5474C308.847 77.7973 308.362 78.674 307.686 79.1777C307.405 79.4152 307.071 79.5788 306.713 79.6538C306.355 79.7288 305.984 79.7128 305.634 79.6073L297.437 77.1605C295.934 76.4945 295.424 75.2309 295.908 73.3698C296.915 69.1877 297.648 66.3541 298.108 64.8688C300.487 57.4772 308.411 52.0772 321.881 48.6688C323.06 48.3327 324.125 47.6745 324.958 46.7666C325.825 45.885 326.474 44.8096 326.853 43.6273C327.103 41.9737 327.021 40.2861 326.612 38.6652C326.19 36.8059 324.914 35.4921 322.785 34.724C320.538 34.0124 317.199 34.4685 312.769 36.0924C308.979 37.4314 305.282 39.0232 301.701 40.8575C301.428 41.0205 301.123 41.1176 300.807 41.1414C300.492 41.1653 300.176 41.1151 299.883 40.9948C299.59 40.8745 299.328 40.6873 299.118 40.448C298.909 40.2086 298.757 39.9235 298.674 39.6149L298.677 39.6067ZM302.093 91.5624C302.856 91.7993 303.53 92.2628 304.028 92.8926C304.28 93.2061 304.446 93.5809 304.509 93.9795C304.573 94.3781 304.532 94.7866 304.391 95.1642L302.226 102.666C302.009 103.367 301.42 103.972 300.458 104.481C299.496 104.99 298.626 105.122 297.849 104.878L294.059 103.821C292.978 103.467 291.922 103.037 290.9 102.535C290.064 102.17 289.504 101.227 289.219 99.7048C289.089 98.8965 289.443 97.1394 290.28 94.4335C290.722 93.0369 291.241 91.6663 291.834 90.328C291.942 89.9804 292.321 89.6712 292.973 89.3947C293.626 89.1183 294.126 89.0416 294.473 89.1511C295.881 89.4915 297.271 89.9063 298.636 90.3937C300.407 91.0095 301.568 91.3982 302.093 91.5624Z" fill="#AF78FA"/>
<path d="M174.001 146.121C174.305 145.975 174.566 145.754 174.762 145.478C176.302 143.515 176.007 140.713 175.631 138.236C175.273 135.876 175.068 134.615 173.525 132.808C172.025 131.051 170.006 129.937 168.173 128.596C165.908 126.94 152.668 114.09 150.532 120.604C150.339 121.288 150.339 122.012 150.532 122.695C151.415 126.303 154.536 128.717 157.096 131.087C161.387 135.05 165.369 139.352 169.278 143.636C170.404 144.876 172.104 146.92 174.001 146.121Z" fill="#FCB9A4"/>
<path d="M174.475 123.256C178.535 116.14 185.056 107.929 192.119 111.154C194.72 112.347 197.327 114.509 199.387 116.491C207.995 124.773 210.464 137.004 214.992 147.692C221.437 162.923 226.919 178.499 232.211 194.166C237.66 209.802 242.227 225.485 240.38 242.227C239.414 251.061 234.645 258.777 226.96 263.279C219.827 267.453 211.782 263.985 207.589 257.258C199.82 244.78 199.116 229.278 197.657 215.049C196.707 205.776 196.455 196.437 196.122 187.132C195.954 182.38 195.768 177.629 195.454 172.883C195.221 169.344 195.814 162.992 194.049 159.871C192.882 157.805 189.737 157.118 187.715 156.133C184.978 154.837 182.343 153.331 179.835 151.628C175.26 148.445 170.794 144.065 169.954 138.247C169.524 135.252 170.149 132.225 171.351 129.488C172.287 127.359 173.33 125.279 174.475 123.256Z" fill="#FCB9A4"/>
<path d="M176.243 124.964C180.132 121.636 183.906 118.094 187.882 114.996C188.265 114.66 188.705 114.397 189.182 114.222C190.735 113.756 192.194 115.191 193.026 116.597C196.168 121.923 196.184 128.64 199.138 134.081C199.452 134.653 199.806 135.313 199.584 135.926C199.362 136.539 198.713 136.799 198.125 137.021C193.545 138.682 189.691 142.585 187.66 147.005C187.56 147.277 187.404 147.526 187.203 147.733C186.843 148.05 186.318 148.059 185.849 148.07C183.37 148.134 180.934 148.738 178.706 149.84C178.401 150.025 178.058 150.136 177.704 150.166C177.217 150.166 176.797 149.835 176.424 149.517C174.123 147.555 171.183 145.24 170.469 142.224C170.038 140.423 169.437 138.665 169.05 136.856C168.92 136.235 167.735 131.467 168.187 131.169C170.999 129.275 173.69 127.203 176.243 124.964Z" fill="#F59776"/>
<path d="M193.494 143.45C195.764 143.874 197.814 145.09 199.287 146.887C204.238 152.909 198.946 157.835 193.302 160.233C190.532 161.41 187.287 162.474 184.258 162.619C178.211 162.893 172.247 159.746 167.245 156.645C161.858 153.305 158.312 148.85 153.515 144.856C152.874 144.309 152.146 143.737 152.037 142.905C151.78 140.94 154.652 138.504 156.349 138.471C161.222 138.384 164.254 143.124 168.241 145.155C171.235 146.69 175.33 148.713 178.614 146.86C182.718 144.536 188.564 142.442 193.494 143.45Z" fill="#FCB9A4"/>
<path d="M198.688 118.669C198.577 118.701 198.475 118.759 198.391 118.839C196.48 120.604 196.899 125.134 196.225 127.496C195.824 128.886 195.294 130.268 194.411 131.41C193.529 132.551 192.246 133.435 190.819 133.575C189.642 133.692 188.269 133.112 187.999 131.933C187.934 131.543 187.934 131.145 187.999 130.756C188.321 127.608 188.673 124.461 188.965 121.316C189.22 118.557 189.285 114.909 191.044 112.67C191.632 111.871 192.466 111.294 193.415 111.028C197.809 109.968 200.356 114.662 202.121 117.81C202.738 118.905 203.344 120.082 203.407 121.349C202.44 120.67 199.909 118.3 198.688 118.669Z" fill="#FCB9A4"/>
<path d="M181.862 137.716C181.248 137.752 180.639 137.577 180.135 137.22C179.039 136.429 178.644 134.984 178.416 133.64C177.929 130.761 177.859 127.827 177.794 124.907C177.725 123.461 177.759 122.012 177.896 120.571C178.3 117.128 179.645 113.165 181.548 110.291C181.81 109.839 182.169 109.452 182.598 109.158C183.14 108.841 183.792 108.819 184.415 108.846C186.739 108.951 189.003 109.631 191.006 110.828C191.197 110.925 191.365 111.063 191.499 111.233C191.851 111.753 191.499 112.451 191.15 112.974L188.091 117.55C187.356 118.456 186.956 119.592 186.959 120.763C186.605 125.216 186.718 129.699 185.571 134.051C185.408 134.804 185.112 135.521 184.696 136.167C184.365 136.619 183.939 136.992 183.449 137.26C182.96 137.527 182.418 137.683 181.862 137.716Z" fill="#FCB9A4"/>
<path d="M167.643 125.123C167.215 122.783 167.02 120.448 168.184 118.16C169.121 116.315 171.662 115.278 173.549 114.936C175.858 114.515 178.229 114.805 180.557 115.095C180.2 115.051 177.49 119.356 177.25 119.871C176.619 121.22 177.12 122.942 177.166 124.411C177.325 129.311 178.135 136.241 175.076 140.423C174.448 141.282 173.487 142.1 172.453 141.884C171.481 141.684 170.915 140.669 170.558 139.736C168.742 134.981 168.558 130.104 167.643 125.123Z" fill="#FCB9A4"/>
<path d="M177.274 122.775C176.885 120.309 177.383 117.784 178.679 115.659C177.914 118.305 177.606 121.065 177.769 123.817C177.447 123.596 177.336 123.163 177.274 122.775Z" fill="#F5865E"/>
<path d="M196.063 126.825C196.807 124.108 197.378 121.346 197.771 118.554C198.243 121.091 198.056 123.708 197.229 126.149C196.471 128.383 195.202 130.397 193.943 132.387L196.859 124.091L196.063 126.825Z" fill="#F5865E"/>
<path d="M380.854 311.329H4.6126C2.06513 311.329 0 313.417 0 315.993V316.089C0 318.665 2.06513 320.753 4.6126 320.753H380.854C383.401 320.753 385.466 318.665 385.466 316.089V315.993C385.466 313.417 383.401 311.329 380.854 311.329Z" fill="#96BCDD"/>
<path d="M189.969 305.138H334.365C336.343 305.138 338.258 304.433 339.773 303.147C341.288 301.861 342.307 300.077 342.651 298.107L360.246 197.201C360.461 195.977 360.408 194.721 360.09 193.52C359.773 192.319 359.2 191.203 358.41 190.251C357.62 189.298 356.634 188.532 355.52 188.006C354.406 187.481 353.192 187.208 351.963 187.208H207.567C205.589 187.209 203.673 187.913 202.158 189.199C200.642 190.485 199.623 192.269 199.279 194.239L181.683 295.146C181.469 296.37 181.522 297.626 181.839 298.827C182.156 300.028 182.73 301.144 183.52 302.097C184.31 303.05 185.297 303.816 186.411 304.341C187.525 304.866 188.74 305.139 189.969 305.138Z" fill="#699FCE"/>
<path d="M198.147 305.138H327.625C331.287 305.138 334.419 302.292 335.055 298.389L350.837 201.517C351.649 196.517 348.094 191.938 343.403 191.938H213.937C210.277 191.938 207.142 194.784 206.506 198.69L190.727 295.559C189.913 300.554 193.467 305.138 198.147 305.138Z" fill="#74A6D2"/>
<path d="M136.516 312.254H330.21V304.785H141.399C140.112 304.785 138.878 305.3 137.965 306.216C137.052 307.133 136.535 308.378 136.527 309.679L136.516 312.254Z" fill="#699FCE"/>
<path d="M294.007 220.793C319.454 220.793 340.082 218.348 340.082 215.33C340.082 212.313 319.454 209.867 294.007 209.867C268.561 209.867 247.933 212.313 247.933 215.33C247.933 218.348 268.561 220.793 294.007 220.793Z" fill="#699FCE"/>
<path d="M454.658 134.292H453.045V281.064H454.658V134.292Z" fill="#67A4C3"/>
<path d="M526.43 206.411H381.268V208.042H526.43V206.411Z" fill="#67A4C3"/>
<path d="M506.222 204.114C492.712 204.114 481.917 200.129 474.064 192.225C465.57 183.675 462.191 172.043 460.854 163.791C459.98 158.505 459.685 153.139 459.974 147.788L461.328 147.905C461.046 153.155 461.339 158.42 462.2 163.605C463.51 171.646 466.801 182.969 475.028 191.248C483.847 200.124 496.575 203.884 512.857 202.423L512.979 203.791C510.66 204.007 508.408 204.114 506.222 204.114Z" fill="#67A4C3"/>
<path d="M450.024 268.562L448.67 268.447C448.952 263.196 448.659 257.93 447.796 252.745C446.489 244.703 443.194 233.381 434.971 225.101C426.151 216.225 413.421 212.465 397.141 213.926L397.02 212.558C413.724 211.058 426.82 214.953 435.94 224.132C444.434 232.685 447.812 244.318 449.152 252.569C450.023 257.852 450.315 263.215 450.024 268.562Z" fill="#67A4C3"/>
<path d="M459.928 143.797L453.876 131.314L448.332 143.775L447.084 143.209L453.824 128.065L461.155 143.187L459.928 143.797Z" fill="#67A4C3"/>
<path d="M521.021 214.723L520.42 213.483L532.766 207.363L520.442 201.758L521.002 200.496L535.98 207.311L521.021 214.723Z" fill="#67A4C3"/>
<path d="M543.689 198.066H546.466L548.423 201.046C548.876 201.696 549.348 202.441 549.839 203.282H549.896C550.237 202.669 550.708 201.914 551.284 201.016L553.179 198.066H555.886L551.211 204.771L556 211.937H553.215L551.174 208.814C550.795 208.239 550.303 207.436 549.698 206.405H549.641C549.225 207.15 548.743 207.952 548.196 208.814L546.212 211.937H543.462L548.334 204.859L543.689 198.066Z" fill="#67A4C3"/>
<path d="M446.594 103.602H449.317L452.295 111.813C452.645 112.743 452.948 113.69 453.202 114.651H453.259C453.278 114.594 453.397 114.197 453.613 113.461C453.83 112.725 454.006 112.158 454.138 111.756L456.845 103.616H459.482L455.741 113.505C455.041 115.425 454.228 117.3 453.305 119.121C452.729 120.272 451.957 121.311 451.023 122.189C449.983 123.068 448.963 123.603 447.961 123.793L447.339 121.702C448.142 121.447 448.885 121.028 449.52 120.47C450.434 119.719 451.154 118.754 451.618 117.659C451.716 117.471 451.784 117.267 451.819 117.057C451.796 116.827 451.728 116.604 451.618 116.4L446.594 103.602Z" fill="#67A4C3"/>
</svg>
